<?xml version="1.0" encoding="UTF-8" standalone="no"?><svg xmlns="http://www.w3.org/2000/svg" xmlns:xlink="http://www.w3.org/1999/xlink" contentScriptType="application/ecmascript" contentStyleType="text/css" height="424px" preserveAspectRatio="none" style="width:617px;height:424px;" version="1.1" viewBox="0 0 617 424" width="617px" zoomAndPan="magnify"><defs><filter height="300%" id="f1fy7hpavmdrv8" width="300%" x="-1" y="-1"><feGaussianBlur result="blurOut" stdDeviation="2.0"/><feColorMatrix in="blurOut" result="blurOut2" type="matrix" values="0 0 0 0 0 0 0 0 0 0 0 0 0 0 0 0 0 0 .4 0"/><feOffset dx="4.0" dy="4.0" in="blurOut2" result="blurOut3"/><feBlend in="SourceGraphic" in2="blurOut3" mode="normal"/></filter></defs><g><path d="M37.3741,130.6439 C46.1959,111.441 63.5018,109.4697 77.4645,124.6495 C89.3204,106.7293 106.033,108.2788 116.0813,126.5769 C126.855,106.408 143.7794,109.8061 153.9411,127.1938 C164.4879,106.8585 180.6902,104.7722 194.8397,123.4136 C206.9563,103.4481 218.1507,104.2988 231.7245,121.986 C239.5667,105.486 254.6939,101.3426 265.5912,118.9527 C279.7572,102.7307 294.6686,102.6834 306.5693,121.5949 C318.3625,107.5014 331.9581,109.4168 340.5455,125.2361 C351.6772,105.1617 365.3148,105.3348 379.6026,121.869 C391.7471,103.5206 402.7269,103.5349 415.4173,121.328 C429.0988,98.8652 449.015,101.0564 459.5715,124.3439 C470.7672,109.5118 485.9255,108.3738 493.6007,127.8371 C508.3621,107.0134 521.6541,108.3484 533.9711,130.1521 C548.0464,114.3505 560.4821,114.9098 573,132 C577.1654,132.6513 578.2455,135.716 575.7108,138.9722 C595.5265,147.3407 595.0592,163.0285 579.5894,175.1772 C596.2347,186.2586 593.7854,202.7102 577.3603,211.7775 C600.8217,222.3214 605.6075,237.2881 584.1913,254.9353 C599.9759,267.5969 598.6547,282.5456 582.1412,293.4898 C599.9588,307.6526 604.8546,323.4471 581.045,336.5502 C598.7405,354.8072 589.989,374.2472 566,377 C566.5299,376.5306 567.0385,376.5759 567.3088,377.2876 C560.9854,396.8761 544.9827,399.9296 532.8741,382.6981 C519.036,398.5566 507.4235,400.1005 495.8039,380.3862 C486.8808,399.8618 467.8458,399.1002 455.8093,383.9862 C447.6919,403.1047 432.3411,400.5445 421.4685,386.8717 C408.8311,403.3638 393.6123,404.2348 381.6719,386.0713 C369.8382,404.9106 351.6806,403.1364 339.9483,385.9539 C332.2083,403.0439 319.8784,404.047 306.8869,391.8903 C289.7784,412.4653 275.6528,405.5467 263.9423,386.0983 C252.4349,404.209 238.7093,401.3934 228.0864,385.1744 C218.602,401.5338 203.9568,404.5397 190.7886,389.5584 C178.9545,407.9311 162.32,406.4529 152.9641,387.0753 C139.316,402.0897 127.4257,403.6646 114.699,385.9966 C100.5851,401.025 85.4875,401.0065 76.4696,380.5122 C57.4091,398.1153 39.1143,396.3646 30,370 C33.7735,369.2388 36.0133,370.194 35.6559,374.5583 C16.8626,364.1937 12.0369,345.7416 31.6369,331.7706 C12.2098,322.2789 10.7954,304.5068 29.4418,292.8668 C6.7415,285.9905 9.1724,268.9033 22.3603,255.2677 C3.8437,239.1533 5.2498,225.9186 28.2931,216.0991 C10.9689,202.9428 15.8023,187.0269 32.8537,177.9837 C10.3341,159.7861 9.3554,139.2718 37,125 C39.7485,126.4427 40.3316,128.823 37.3741,130.6439 " fill="#FFFFFF" style="stroke: #000000; stroke-width: 1.5;"/><!--MD5=[95dbcf20255d88fdc1caa43c1b2b595b]
cluster scraper_storage--><rect fill="#FFFFFF" filter="url(#f1fy7hpavmdrv8)" height="103" rx="35" ry="35" style="stroke: #000000; stroke-width: 1.5;" width="495" x="54" y="250"/><text fill="#000000" font-family="sans-serif" font-size="14" font-weight="bold" lengthAdjust="spacingAndGlyphs" textLength="129" x="237" y="269.9951">scraper_storage</text><!--MD5=[f69887a537064799e885626c408bbe82]
entity scraper_vm--><polygon fill="#FEFECE" filter="url(#f1fy7hpavmdrv8)" points="38.5,143,48.5,133,157.5,133,157.5,169.2969,147.5,179.2969,38.5,179.2969,38.5,143" style="stroke: #000000; stroke-width: 1.5;"/><line style="stroke: #000000; stroke-width: 1.5;" x1="147.5" x2="156.5" y1="143" y2="134"/><line style="stroke: #000000; stroke-width: 1.5;" x1="38.5" x2="147.5" y1="143" y2="143"/><line style="stroke: #000000; stroke-width: 1.5;" x1="147.5" x2="147.5" y1="143" y2="179.2969"/><text fill="#000000" font-family="sans-serif" font-size="14" lengthAdjust="spacingAndGlyphs" textLength="79" x="53.5" y="165.9951">scraper_vm</text><!--MD5=[88b0702a6c9b7611642e498d52a5ff00]
entity scraper_cache--><rect fill="#FEFECE" filter="url(#f1fy7hpavmdrv8)" height="36.2969" rx="35" ry="35" style="stroke: #000000; stroke-width: 1.5;" width="121" x="403.5" y="293"/><text fill="#000000" font-family="sans-serif" font-size="14" lengthAdjust="spacingAndGlyphs" textLength="101" x="413.5" y="315.9951">scraper_cache</text><!--MD5=[bc82cd7e56af13a9631158139a081d4c]
entity scraper_media--><rect fill="#FEFECE" filter="url(#f1fy7hpavmdrv8)" height="36.2969" rx="35" ry="35" style="stroke: #000000; stroke-width: 1.5;" width="121" x="97.5" y="293"/><text fill="#000000" font-family="sans-serif" font-size="14" lengthAdjust="spacingAndGlyphs" textLength="101" x="107.5" y="315.9951">scraper_media</text><!--MD5=[3a05238fbb4425d79acd2c40c145cea9]
entity roms_storage--><rect fill="#FEFECE" filter="url(#f1fy7hpavmdrv8)" height="36.2969" rx="35" ry="35" style="stroke: #000000; stroke-width: 1.5;" width="115" x="253.5" y="293"/><text fill="#000000" font-family="sans-serif" font-size="14" lengthAdjust="spacingAndGlyphs" textLength="95" x="263.5" y="315.9951">roms_storage</text><!--MD5=[c373cddcc2f664aaf498d4903906bcab]
entity raspberry_pi--><polygon fill="#FEFECE" filter="url(#f1fy7hpavmdrv8)" points="149,18,159,8,273,8,273,44.2969,263,54.2969,149,54.2969,149,18" style="stroke: #000000; stroke-width: 1.5;"/><line style="stroke: #000000; stroke-width: 1.5;" x1="263" x2="272" y1="18" y2="9"/><line style="stroke: #000000; stroke-width: 1.5;" x1="149" x2="263" y1="18" y2="18"/><line style="stroke: #000000; stroke-width: 1.5;" x1="263" x2="263" y1="18" y2="54.2969"/><text fill="#000000" font-family="sans-serif" font-size="14" lengthAdjust="spacingAndGlyphs" textLength="84" x="164" y="40.9951">raspberry_pi</text><!--MD5=[6ba6e3b1b2e6bf4577af7e768a33e5bf]
link raspberry_pi to scraper_vm--><path d="M152.413,56.803 C140.369,64.108 128.721,73.129 120,84 C110.004,96.462 104.5307,113.474 101.5439,127.722 " fill="none" id="raspberry_pi-scraper_vm" style="stroke: #A80036; stroke-width: 1.0;"/><polygon fill="#A80036" points="100.5523,132.833,106.1941,124.7602,101.5051,127.9246,98.3407,123.2357,100.5523,132.833" style="stroke: #A80036; stroke-width: 1.0;"/><polygon fill="#A80036" points="156.863,54.189,147.0769,55.2989,152.5519,56.7217,151.1291,62.1967,156.863,54.189" style="stroke: #A80036; stroke-width: 1.0;"/><text fill="#000000" font-family="sans-serif" font-size="13" lengthAdjust="spacingAndGlyphs" textLength="63" x="121" y="97.0669">read/write</text><!--MD5=[138805d190857a4ddf2a7d131b17e5a5]
link scraper_vm to scraper_storage--><path d="M91.5674,184.338 C89.021,195.1605 85.9386,208.2604 82.7381,221.8629 C81.1378,228.6641 79.5079,235.591 77.9007,242.4217 C77.4989,244.1293 77.0985,245.831 76.7004,247.5232 C76.6008,247.9462 76.5014,248.3687 76.4022,248.7905 C76.3526,249.0014 76.303,249.2121 76.2534,249.4227 " fill="none" id="scraper_vm-scraper_storage" style="stroke: #A80036; stroke-width: 1.0;"/><polygon fill="#A80036" points="76.2534,249.4227,82.2085,241.5781,77.3986,244.5556,74.4211,239.7458,76.2534,249.4227" style="stroke: #A80036; stroke-width: 1.0;"/><polygon fill="#A80036" points="92.7653,179.248,86.8117,187.0937,91.621,184.1153,94.5994,188.9246,92.7653,179.248" style="stroke: #A80036; stroke-width: 1.0;"/><text fill="#000000" font-family="sans-serif" font-size="13" lengthAdjust="spacingAndGlyphs" textLength="63" x="87" y="222.0669">read/write</text><!--MD5=[c25b1f04de524d289ffea331986ebc79]
reverse link raspberry_pi to scraper_media--><path d="M209.963,59.471 C208.064,97.388 202.851,167.692 189,226 C183.359,249.744 172.978,275.958 165.792,292.682 " fill="none" id="raspberry_pi&lt;-scraper_media" style="stroke: #A80036; stroke-width: 1.0; stroke-dasharray: 7.0,7.0;"/><polygon fill="#A80036" points="210.22,54.117,205.7926,62.9146,209.98,59.1112,213.7834,63.2986,210.22,54.117" style="stroke: #A80036; stroke-width: 1.0;"/><!--MD5=[b8b9f51e88085aa872bb905edb9467aa]
reverse link raspberry_pi to roms_storage--><path d="M223.46,58.95 C227.012,66.952 230.788,75.776 234,84 C264.014,160.833 293.894,254.778 305.712,292.804 " fill="none" id="raspberry_pi&lt;-roms_storage" style="stroke: #A80036; stroke-width: 1.0; stroke-dasharray: 7.0,7.0;"/><polygon fill="#A80036" points="221.284,54.087,221.3109,63.9358,223.3271,58.6505,228.6125,60.6668,221.284,54.087" style="stroke: #A80036; stroke-width: 1.0;"/><!--MD5=[4e314d4e2d9a1ec75154c7ec34f2b1f9]
@startuml
cloud {
    node scraper_vm
    storage scraper_storage {
        storage scraper_cache
        storage scraper_media
        storage roms_storage
    }
}

node raspberry_pi

raspberry_pi <- -> scraper_vm : read/write
scraper_vm <- -> scraper_storage : read/write

raspberry_pi <.. scraper_media
raspberry_pi <.. roms_storage
@enduml

PlantUML version 1.2020.00(Sat Jan 11 12:30:53 UTC 2020)
(GPL source distribution)
Java Runtime: Java(TM) SE Runtime Environment
JVM: Java HotSpot(TM) 64-Bit Server VM
Java Version: 1.7.0_25-b15
Operating System: Linux
Default Encoding: UTF-8
Language: en
Country: US
--></g></svg>