<?xml version="1.0" encoding="UTF-8" standalone="no"?><svg xmlns="http://www.w3.org/2000/svg" xmlns:xlink="http://www.w3.org/1999/xlink" contentScriptType="application/ecmascript" contentStyleType="text/css" height="415px" preserveAspectRatio="none" style="width:617px;height:415px;" version="1.1" viewBox="0 0 617 415" width="617px" zoomAndPan="magnify"><defs><filter height="300%" id="fhae1kj6grnjt" width="300%" x="-1" y="-1"><feGaussianBlur result="blurOut" stdDeviation="2.0"/><feColorMatrix in="blurOut" result="blurOut2" type="matrix" values="0 0 0 0 0 0 0 0 0 0 0 0 0 0 0 0 0 0 .4 0"/><feOffset dx="4.0" dy="4.0" in="blurOut2" result="blurOut3"/><feBlend in="SourceGraphic" in2="blurOut3" mode="normal"/></filter></defs><g><path d="M37.4599,127.8419 C46.0032,114.0853 57.141,112.823 66.0112,127.5137 C72.8429,114.5988 85.7929,114.2726 93.5601,126.4881 C102.3467,112.7256 110.5903,110.6498 121.3897,124.4564 C129.6542,112.7396 140.1537,110.4351 149.2074,123.5733 C155.4891,113.4245 164.4896,110.9702 172.4082,121.7596 C180.5113,107.9814 194.2125,108.2367 202.4052,121.6607 C212.2373,105.4852 221.4051,108.7311 231.5955,121.2968 C238.2807,110.7903 248.5732,110.3043 255.092,121.4771 C263.2738,109.6484 274.0626,108.7492 281.5047,122.2485 C290.455,107.1791 301.6983,109.7325 309.927,122.9729 C319.667,110.774 330.1283,109.2071 339.6274,123.2457 C347.9882,111.4258 359.0972,113.4999 363.8561,126.7297 C371.4143,116.3869 383.1298,114.188 389.4039,128.0831 C400.8644,113.5119 415.2246,114.9636 423,132 C423.9515,132.4403 424.1827,133.4249 423.2575,134.0957 C437.89,142.5814 436.6631,152.2695 425.5822,162.8351 C441.434,171.3647 442.2735,183.6588 426.087,192.7295 C440.6846,202.3642 441.1072,212.5394 429.3115,224.8256 C442.6286,233.4088 444.5985,247.9737 428.6623,255.9467 C439.6077,263.6916 439.7502,272.7511 429.4301,281.1439 C444.7651,294.3405 442.8988,305.1354 425.3966,314.3423 C438.2238,323.431 441.3349,335.0414 425.8355,344.5418 C437.7039,359.3521 432.8398,370.8889 416,377 C417.1899,377.2693 417.3977,377.893 416.8251,378.9198 C410.4706,390.0122 399.6936,391.1027 393.4857,378.7738 C386.1589,394.222 374.5771,394.6236 362.8336,383.958 C356.1214,398.4351 346.5331,396.2616 337.7214,386.0976 C330.1203,400.5967 316.4662,399.7606 309.7139,385.2772 C303.3787,397.5971 293.2154,401.0987 282.9153,389.7703 C274.2733,403.9852 264.6373,401.5903 256.0903,389.6727 C249.7262,403.3095 238.6734,402.0597 230.1685,392.0163 C222.4712,402.9581 212.0645,402.6704 204.2808,392.1203 C195.251,403.5932 182.4257,403.7817 177.0632,388.403 C165.9115,399.9244 154.9837,400.0682 146.7347,385.0819 C137.5175,396.193 129.5899,394.6282 122.4753,382.8531 C114.8618,395.7267 102.9099,393.7012 96.2049,381.8864 C85.6022,396.1804 73.6773,394.389 65.3039,379.5241 C50.0536,392.1161 36.5048,389.8256 30,370 C31.7649,369.4597 32.712,369.7889 32.5916,371.8665 C17.0452,363.9308 19.1324,350.1311 33.1344,342.7462 C17.0703,333.9707 18.1813,321.5134 31.2718,311.0259 C18.3679,302.0915 17.9237,292.4078 31.4054,283.602 C14.575,274.6233 17.2572,261.6174 31.5991,252.835 C20.1721,244.9442 17.2641,230.8048 32.4677,223.7081 C20.9753,214.2252 20.9853,203.9697 33.8696,195.7072 C16.995,186.8278 16.6513,171.2351 34.4989,163.0243 C16.0186,148.695 20.2263,137.0104 37,125 C38.5576,125.5961 38.8075,126.7756 37.4599,127.8419 " fill="#FFFFFF" style="stroke: #000000; stroke-width: 1.5;"/><!--MD5=[95dbcf20255d88fdc1caa43c1b2b595b]
cluster scraper_storage--><rect fill="#FFFFFF" filter="url(#fhae1kj6grnjt)" height="103" rx="35" ry="35" style="stroke: #000000; stroke-width: 1.5;" width="345" x="54" y="250"/><text fill="#000000" font-family="sans-serif" font-size="14" font-weight="bold" lengthAdjust="spacingAndGlyphs" textLength="129" x="162" y="269.9951">scraper_storage</text><path d="M464.8638,286.2678 C467.7917,281.3891 471.0532,281.1345 474.3967,285.8551 C477.7463,280.7021 481.5122,280.2041 485.9289,284.561 C488.6066,279.5471 491.6697,278.3138 496.3098,282.2965 C500.1751,275.8285 504.0291,275.3724 508.6415,281.569 C512.5005,276.1464 515.8615,275.9526 519.4866,281.7941 C521.1649,275.0417 526.8111,275.2671 530.7406,279.4845 C534.1503,274.8527 539.1029,275.0906 541.5156,280.5492 C544.8372,276.1771 550.2992,276.0332 552.3362,281.9059 C556.212,276.6227 562.0123,277.6412 564.1769,283.6933 C568.1444,279.6701 571.3665,278.8848 574.2787,284.7693 C578.0757,279.8725 582.8895,279.5619 585.4068,286.0231 C588.521,282.0929 593.557,282.557 595.7211,287.1701 C601.6675,289.3816 603.0563,295.3477 598.2433,299.7214 C605.4273,302.7413 605.5112,306.9604 601.3267,312.6845 C605.5264,317.7669 604.0611,323.6151 597.5539,325.5601 C602.4624,329.6047 603.8399,334.3106 597.0461,337.8725 C593.2744,342.8449 589.8222,343.6367 585.594,338.3839 C582.1659,344.3076 578.2906,344.0798 574.4751,338.7673 C571.07,345.1609 567.0899,345.5227 562.1084,340.4705 C558.8354,345.05 555.6069,345.237 551.9448,340.9149 C548.5079,345.7343 543.7996,346.0743 540.3144,340.9715 C537.4958,346.3932 533.2233,345.8529 530.2646,341.1102 C527.0224,347.5367 521.4058,347.1278 518.3374,340.9459 C516.0877,345.4483 511.5682,345.9945 508.7685,341.5329 C504.4666,347.1194 501.0688,346.4786 497.5828,340.7279 C493.9639,346.5749 488.1911,345.2804 485.6065,339.6488 C482.1882,344.2666 477.6946,344.8494 474.2258,339.7077 C470.1622,344.3381 466.1505,342.3827 464.1809,337.4974 C456.9416,336.1631 455.0135,330.4192 460.0645,325.0277 C453.6948,322.6456 451.0341,319.1072 455.8097,312.8356 C450.3415,307.605 451.3164,301.6425 459.245,299.9963 C453.5933,292.4587 457.3941,288.435 464.8638,286.2678 " fill="#FFFFFF" style="stroke: #000000; stroke-width: 1.5;"/><!--MD5=[f69887a537064799e885626c408bbe82]
entity scraper_vm--><polygon fill="#FEFECE" filter="url(#fhae1kj6grnjt)" points="293.5,143,303.5,133,412.5,133,412.5,169.2969,402.5,179.2969,293.5,179.2969,293.5,143" style="stroke: #000000; stroke-width: 1.5;"/><line style="stroke: #000000; stroke-width: 1.5;" x1="402.5" x2="411.5" y1="143" y2="134"/><line style="stroke: #000000; stroke-width: 1.5;" x1="293.5" x2="402.5" y1="143" y2="143"/><line style="stroke: #000000; stroke-width: 1.5;" x1="402.5" x2="402.5" y1="143" y2="179.2969"/><text fill="#000000" font-family="sans-serif" font-size="14" lengthAdjust="spacingAndGlyphs" textLength="79" x="308.5" y="165.9951">scraper_vm</text><!--MD5=[88b0702a6c9b7611642e498d52a5ff00]
entity scraper_cache--><rect fill="#FEFECE" filter="url(#fhae1kj6grnjt)" height="36.2969" rx="35" ry="35" style="stroke: #000000; stroke-width: 1.5;" width="121" x="234.5" y="293"/><text fill="#000000" font-family="sans-serif" font-size="14" lengthAdjust="spacingAndGlyphs" textLength="101" x="244.5" y="315.9951">scraper_cache</text><!--MD5=[bc82cd7e56af13a9631158139a081d4c]
entity scraper_media--><rect fill="#FEFECE" filter="url(#fhae1kj6grnjt)" height="36.2969" rx="35" ry="35" style="stroke: #000000; stroke-width: 1.5;" width="121" x="78.5" y="293"/><text fill="#000000" font-family="sans-serif" font-size="14" lengthAdjust="spacingAndGlyphs" textLength="101" x="88.5" y="315.9951">scraper_media</text><!--MD5=[3a05238fbb4425d79acd2c40c145cea9]
entity roms_storage--><rect fill="#FEFECE" filter="url(#fhae1kj6grnjt)" height="36.2969" rx="35" ry="35" style="stroke: #000000; stroke-width: 1.5;" width="115" x="471.5" y="293"/><text fill="#000000" font-family="sans-serif" font-size="14" lengthAdjust="spacingAndGlyphs" textLength="95" x="481.5" y="315.9951">roms_storage</text><!--MD5=[c373cddcc2f664aaf498d4903906bcab]
entity raspberry_pi--><polygon fill="#FEFECE" filter="url(#fhae1kj6grnjt)" points="291,18,301,8,415,8,415,44.2969,405,54.2969,291,54.2969,291,18" style="stroke: #000000; stroke-width: 1.5;"/><line style="stroke: #000000; stroke-width: 1.5;" x1="405" x2="414" y1="18" y2="9"/><line style="stroke: #000000; stroke-width: 1.5;" x1="291" x2="405" y1="18" y2="18"/><line style="stroke: #000000; stroke-width: 1.5;" x1="405" x2="405" y1="18" y2="54.2969"/><text fill="#000000" font-family="sans-serif" font-size="14" lengthAdjust="spacingAndGlyphs" textLength="84" x="306" y="40.9951">raspberry_pi</text><!--MD5=[0914da461390f724a22ebfa965eb0a22]
reverse link raspberry_pi to scraper_vm--><path d="M353,59.423 C353,81.561 353,112.308 353,132.891 " fill="none" id="raspberry_pi&lt;-scraper_vm" style="stroke: #A80036; stroke-width: 1.0;"/><polygon fill="#A80036" points="353,54.274,349,63.274,353,59.274,357,63.274,353,54.274" style="stroke: #A80036; stroke-width: 1.0;"/><text fill="#000000" font-family="sans-serif" font-size="13" lengthAdjust="spacingAndGlyphs" textLength="29" x="354" y="97.0669">read</text><!--MD5=[138805d190857a4ddf2a7d131b17e5a5]
link scraper_vm to scraper_storage--><path d="M348.616,184.441 C347.872,197.937 349.233,213.866 357,226 C361.073,232.364 367.35,228.045 372,234 C374.5946,237.3233 376.8395,240.9561 378.7812,244.7748 C379.2666,245.7295 379.7331,246.6958 380.1814,247.6718 C380.4055,248.1598 380.6251,248.6502 380.8402,249.1428 C380.9478,249.3891 381.0542,249.6359 381.1596,249.8833 " fill="none" id="scraper_vm-scraper_storage" style="stroke: #A80036; stroke-width: 1.0;"/><polygon fill="#A80036" points="381.1596,249.8833,381.3134,240.0356,379.2005,245.283,373.9531,243.1701,381.1596,249.8833" style="stroke: #A80036; stroke-width: 1.0;"/><polygon fill="#A80036" points="349.014,179.21,344.3441,187.8813,348.6354,184.1956,352.3211,188.487,349.014,179.21" style="stroke: #A80036; stroke-width: 1.0;"/><text fill="#000000" font-family="sans-serif" font-size="13" lengthAdjust="spacingAndGlyphs" textLength="63" x="358" y="222.0669">read/write</text><!--MD5=[c6051935eb98c9370deb2b6ff6f8d053]
reverse link scraper_vm to roms_storage--><path d="M390.746,182.196 C402.341,190.38 414.951,199.745 426,209 C458.638,236.339 493.35,271.907 512.988,292.719 " fill="none" id="scraper_vm&lt;-roms_storage" style="stroke: #A80036; stroke-width: 1.0;"/><polygon fill="#A80036" points="386.525,179.237,391.5987,187.6784,390.6193,182.107,396.1907,181.1276,386.525,179.237" style="stroke: #A80036; stroke-width: 1.0;"/><text fill="#000000" font-family="sans-serif" font-size="13" lengthAdjust="spacingAndGlyphs" textLength="29" x="445" y="222.0669">read</text><!--MD5=[c25b1f04de524d289ffea331986ebc79]
reverse link raspberry_pi to scraper_media--><path d="M286.32,56.288 C260.171,68.641 231.76,85.994 212,109 C163.861,165.045 146.452,255.414 141.086,292.879 " fill="none" id="raspberry_pi&lt;-scraper_media" style="stroke: #A80036; stroke-width: 1.0; stroke-dasharray: 7.0,7.0;"/><polygon fill="#A80036" points="291.173,54.039,281.3253,54.1919,286.636,56.1404,284.6875,61.451,291.173,54.039" style="stroke: #A80036; stroke-width: 1.0;"/><!--MD5=[b8b9f51e88085aa872bb905edb9467aa]
reverse link raspberry_pi to roms_storage--><path d="M383.18,57.64 C398.672,71.773 417.148,90.227 431,109 C476.524,170.697 510.134,256.83 523.118,292.974 " fill="none" id="raspberry_pi&lt;-roms_storage" style="stroke: #A80036; stroke-width: 1.0; stroke-dasharray: 7.0,7.0;"/><polygon fill="#A80036" points="379.31,54.142,383.3053,63.1441,383.0196,57.4945,388.6692,57.2088,379.31,54.142" style="stroke: #A80036; stroke-width: 1.0;"/><!--MD5=[3040aa5294000115553c96de27640e02]
@startuml
cloud {
    node scraper_vm
    storage scraper_storage {
        storage scraper_cache
        storage scraper_media
    }
}
cloud {
    storage roms_storage
}

node raspberry_pi

raspberry_pi <- - scraper_vm : read
scraper_vm <- -> scraper_storage : read/write
scraper_vm <- - roms_storage : read

raspberry_pi <.. scraper_media
raspberry_pi <.. roms_storage
@enduml

PlantUML version 1.2019.12(Sun Nov 03 10:24:54 UTC 2019)
(GPL source distribution)
Java Runtime: Java(TM) SE Runtime Environment
JVM: Java HotSpot(TM) 64-Bit Server VM
Java Version: 1.7.0_25-b15
Operating System: Linux
Default Encoding: UTF-8
Language: en
Country: US
--></g></svg>