<?xml version="1.0" encoding="UTF-8" standalone="no"?><svg xmlns="http://www.w3.org/2000/svg" xmlns:xlink="http://www.w3.org/1999/xlink" contentScriptType="application/ecmascript" contentStyleType="text/css" height="689px" preserveAspectRatio="none" style="width:2197px;height:689px;" version="1.1" viewBox="0 0 2197 689" width="2197px" zoomAndPan="magnify"><defs><filter height="300%" id="f1xvhnw64yx396" width="300%" x="-1" y="-1"><feGaussianBlur result="blurOut" stdDeviation="2.0"/><feColorMatrix in="blurOut" result="blurOut2" type="matrix" values="0 0 0 0 0 0 0 0 0 0 0 0 0 0 0 0 0 0 .4 0"/><feOffset dx="4.0" dy="4.0" in="blurOut2" result="blurOut3"/><feBlend in="SourceGraphic" in2="blurOut3" mode="normal"/></filter></defs><g><!--MD5=[213ea740c569fadc3f4e150f5c2bff2e]
cluster scraper_share--><rect fill="#FFFFFF" filter="url(#f1xvhnw64yx396)" height="403" rx="35" ry="35" style="stroke: #000000; stroke-width: 1.5;" width="1216" x="30" y="275"/><text fill="#000000" font-family="sans-serif" font-size="14" font-weight="bold" lengthAdjust="spacingAndGlyphs" textLength="89" x="593.5" y="294.9951">retro-cloud</text><!--MD5=[6e2bc53f2b489a463b0855903b315b97]
cluster cache--><polygon fill="#FFFFFF" filter="url(#f1xvhnw64yx396)" points="1012,478,1065,478,1072,500.2969,1214,500.2969,1214,551,1012,551,1012,478" style="stroke: #000000; stroke-width: 1.5;"/><line style="stroke: #000000; stroke-width: 1.5;" x1="1012" x2="1072" y1="500.2969" y2="500.2969"/><text fill="#000000" font-family="sans-serif" font-size="14" font-weight="bold" lengthAdjust="spacingAndGlyphs" textLength="47" x="1016" y="492.9951">cache</text><!--MD5=[ad36b25577e831a0a521b47b9033b1dd]
cluster .emulationstation--><polygon fill="#FFFFFF" filter="url(#f1xvhnw64yx396)" points="388,326,530,326,537,348.2969,988,348.2969,988,646,388,646,388,326" style="stroke: #000000; stroke-width: 1.5;"/><line style="stroke: #000000; stroke-width: 1.5;" x1="388" x2="537" y1="348.2969" y2="348.2969"/><text fill="#000000" font-family="sans-serif" font-size="14" font-weight="bold" lengthAdjust="spacingAndGlyphs" textLength="136" x="392" y="340.9951">.emulationstation</text><!--MD5=[697b3354a9f52e8346827e836942d9ac]
cluster scraper_downloadedmedia--><polygon fill="#FFFFFF" filter="url(#f1xvhnw64yx396)" points="670,377,827,377,834,399.2969,956,399.2969,956,614,670,614,670,377" style="stroke: #000000; stroke-width: 1.5;"/><line style="stroke: #000000; stroke-width: 1.5;" x1="670" x2="834" y1="399.2969" y2="399.2969"/><text fill="#000000" font-family="sans-serif" font-size="14" font-weight="bold" lengthAdjust="spacingAndGlyphs" textLength="151" x="674" y="391.9951">downloaded_media</text><!--MD5=[a800d42652f2ea8a7a583938cb054bf1]
cluster scraper_downloadedmedia_scummvm--><polygon fill="#FFFFFF" filter="url(#f1xvhnw64yx396)" points="710,428,795,428,802,450.2969,924,450.2969,924,582,710,582,710,428" style="stroke: #000000; stroke-width: 1.5;"/><line style="stroke: #000000; stroke-width: 1.5;" x1="710" x2="802" y1="450.2969" y2="450.2969"/><text fill="#000000" font-family="sans-serif" font-size="14" font-weight="bold" lengthAdjust="spacingAndGlyphs" textLength="79" x="714" y="442.9951">scummvm</text><!--MD5=[000223e6bce3c8893b15940fba3a1ae1]
cluster screenshots--><polygon fill="#FFFFFF" filter="url(#f1xvhnw64yx396)" points="734,471,839,471,846,493.2969,900,493.2969,900,558,734,558,734,471" style="stroke: #000000; stroke-width: 1.5;"/><line style="stroke: #000000; stroke-width: 1.5;" x1="734" x2="846" y1="493.2969" y2="493.2969"/><text fill="#000000" font-family="sans-serif" font-size="14" font-weight="bold" lengthAdjust="spacingAndGlyphs" textLength="99" x="738" y="485.9951">screenshots</text><!--MD5=[564b22ef8b6d7af2d51b48a1455f591b]
cluster scraper_gamelists--><polygon fill="#FFFFFF" filter="url(#f1xvhnw64yx396)" points="420,420,501,420,508,442.2969,630,442.2969,630,590,420,590,420,420" style="stroke: #000000; stroke-width: 1.5;"/><line style="stroke: #000000; stroke-width: 1.5;" x1="420" x2="508" y1="442.2969" y2="442.2969"/><text fill="#000000" font-family="sans-serif" font-size="14" font-weight="bold" lengthAdjust="spacingAndGlyphs" textLength="75" x="424" y="434.9951">gamelists</text><!--MD5=[8f3dba0732d967c0df79d309fe57a2c7]
cluster scraper_gamelists_scummvm--><polygon fill="#FFFFFF" filter="url(#f1xvhnw64yx396)" points="460,471,545,471,552,493.2969,598,493.2969,598,558,460,558,460,471" style="stroke: #000000; stroke-width: 1.5;"/><line style="stroke: #000000; stroke-width: 1.5;" x1="460" x2="552" y1="493.2969" y2="493.2969"/><text fill="#000000" font-family="sans-serif" font-size="14" font-weight="bold" lengthAdjust="spacingAndGlyphs" textLength="79" x="464" y="485.9951">scummvm</text><!--MD5=[29862c126e9cd6fe495cdb1bf1e92ea9]
cluster RetroPie--><polygon fill="#FFFFFF" filter="url(#f1xvhnw64yx396)" points="70,369,143,369,150,391.2969,364,391.2969,364,622,70,622,70,369" style="stroke: #000000; stroke-width: 1.5;"/><line style="stroke: #000000; stroke-width: 1.5;" x1="70" x2="150" y1="391.2969" y2="391.2969"/><text fill="#000000" font-family="sans-serif" font-size="14" font-weight="bold" lengthAdjust="spacingAndGlyphs" textLength="67" x="74" y="383.9951">RetroPie</text><!--MD5=[724368704ee42a399dfb2c968f2d9d7c]
cluster roms_roms--><polygon fill="#FFFFFF" filter="url(#f1xvhnw64yx396)" points="102,420,148,420,155,442.2969,332,442.2969,332,590,102,590,102,420" style="stroke: #000000; stroke-width: 1.5;"/><line style="stroke: #000000; stroke-width: 1.5;" x1="102" x2="155" y1="442.2969" y2="442.2969"/><text fill="#000000" font-family="sans-serif" font-size="14" font-weight="bold" lengthAdjust="spacingAndGlyphs" textLength="40" x="106" y="434.9951">roms</text><!--MD5=[d4dcf26dd5110d415722840486c7680b]
cluster roms_scummvm--><polygon fill="#FFFFFF" filter="url(#f1xvhnw64yx396)" points="142,471,227,471,234,493.2969,300,493.2969,300,558,142,558,142,471" style="stroke: #000000; stroke-width: 1.5;"/><line style="stroke: #000000; stroke-width: 1.5;" x1="142" x2="234" y1="493.2969" y2="493.2969"/><text fill="#000000" font-family="sans-serif" font-size="14" font-weight="bold" lengthAdjust="spacingAndGlyphs" textLength="79" x="146" y="485.9951">scummvm</text><!--MD5=[f92d360a1ab1165eb003422ff9636935]
cluster raspberry_pi--><polygon fill="#FFFFFF" filter="url(#f1xvhnw64yx396)" points="1278,84,1288,74,2175,74,2175,582,2165,592,1278,592,1278,84" style="stroke: #000000; stroke-width: 1.5;"/><line style="stroke: #000000; stroke-width: 1.5;" x1="2165" x2="2174" y1="84" y2="75"/><line style="stroke: #000000; stroke-width: 1.5;" x1="1278" x2="2165" y1="84" y2="84"/><line style="stroke: #000000; stroke-width: 1.5;" x1="2165" x2="2165" y1="84" y2="592"/><text fill="#000000" font-family="sans-serif" font-size="14" font-weight="bold" lengthAdjust="spacingAndGlyphs" textLength="99" x="1673" y="99.9951">raspberry_pi</text><!--MD5=[7d0f2ea4e36aa958ee1e59388a96fb31]
cluster raspberrypi_emulationstation--><polygon fill="#FFFFFF" filter="url(#f1xvhnw64yx396)" points="1656,122,1798,122,1805,144.2969,2151,144.2969,2151,229,1656,229,1656,122" style="stroke: #000000; stroke-width: 1.5;"/><line style="stroke: #000000; stroke-width: 1.5;" x1="1656" x2="1805" y1="144.2969" y2="144.2969"/><text fill="#000000" font-family="sans-serif" font-size="14" font-weight="bold" lengthAdjust="spacingAndGlyphs" textLength="136" x="1660" y="136.9951">.emulationstation</text><!--MD5=[0c85290c76c084d0f3edf007d1e1ebef]
cluster raspberrpi_retropie--><polygon fill="#FFFFFF" filter="url(#f1xvhnw64yx396)" points="1450,122,1523,122,1530,144.2969,1632,144.2969,1632,229,1450,229,1450,122" style="stroke: #000000; stroke-width: 1.5;"/><line style="stroke: #000000; stroke-width: 1.5;" x1="1450" x2="1530" y1="144.2969" y2="144.2969"/><text fill="#000000" font-family="sans-serif" font-size="14" font-weight="bold" lengthAdjust="spacingAndGlyphs" textLength="67" x="1454" y="136.9951">RetroPie</text><!--MD5=[cceeca3b26ee61cb6bf7b2c85632c6d2]
cluster raspberrypi_ssh--><polygon fill="#FFFFFF" filter="url(#f1xvhnw64yx396)" points="1302,132,1341,132,1348,154.2969,1426,154.2969,1426,219,1302,219,1302,132" style="stroke: #000000; stroke-width: 1.5;"/><line style="stroke: #000000; stroke-width: 1.5;" x1="1302" x2="1348" y1="154.2969" y2="154.2969"/><text fill="#000000" font-family="sans-serif" font-size="14" font-weight="bold" lengthAdjust="spacingAndGlyphs" textLength="33" x="1306" y="146.9951">.ssh</text><!--MD5=[b24681d8753d4854684825e02c0e23f7]
cluster raspberrypi_mount--><polygon fill="#FFFFFF" filter="url(#f1xvhnw64yx396)" points="1513,461,1549,461,1556,483.2969,1789,483.2969,1789,568,1513,568,1513,461" style="stroke: #000000; stroke-width: 1.5;"/><line style="stroke: #000000; stroke-width: 1.5;" x1="1513" x2="1556" y1="483.2969" y2="483.2969"/><text fill="#000000" font-family="sans-serif" font-size="14" font-weight="bold" lengthAdjust="spacingAndGlyphs" textLength="30" x="1517" y="475.9951">mnt</text><!--MD5=[5a609c4c1f8c145238265b0a0da7c10c]
cluster scraper_vm--><polygon fill="#FFFFFF" filter="url(#f1xvhnw64yx396)" points="604,94,614,84,1254,84,1254,233,1244,243,604,243,604,94" style="stroke: #000000; stroke-width: 1.5;"/><line style="stroke: #000000; stroke-width: 1.5;" x1="1244" x2="1253" y1="94" y2="85"/><line style="stroke: #000000; stroke-width: 1.5;" x1="604" x2="1244" y1="94" y2="94"/><line style="stroke: #000000; stroke-width: 1.5;" x1="1244" x2="1244" y1="94" y2="243"/><text fill="#000000" font-family="sans-serif" font-size="14" font-weight="bold" lengthAdjust="spacingAndGlyphs" textLength="91" x="879.5" y="109.9951">scraper_vm</text><!--MD5=[f6e243222f570263fbb26d0b3fbee5d8]
cluster scrapervm_skyscraper--><polygon fill="#FFFFFF" filter="url(#f1xvhnw64yx396)" points="983,132,1082,132,1089,154.2969,1230,154.2969,1230,219,983,219,983,132" style="stroke: #000000; stroke-width: 1.5;"/><line style="stroke: #000000; stroke-width: 1.5;" x1="983" x2="1089" y1="154.2969" y2="154.2969"/><text fill="#000000" font-family="sans-serif" font-size="14" font-weight="bold" lengthAdjust="spacingAndGlyphs" textLength="93" x="987" y="146.9951">.skyscraper</text><!--MD5=[e19b3a96f885c5eface718264468e806]
cluster .ssh--><polygon fill="#FFFFFF" filter="url(#f1xvhnw64yx396)" points="793,132,832,132,839,154.2969,959,154.2969,959,219,793,219,793,132" style="stroke: #000000; stroke-width: 1.5;"/><line style="stroke: #000000; stroke-width: 1.5;" x1="793" x2="839" y1="154.2969" y2="154.2969"/><text fill="#000000" font-family="sans-serif" font-size="14" font-weight="bold" lengthAdjust="spacingAndGlyphs" textLength="33" x="797" y="146.9951">.ssh</text><!--MD5=[7fb5956482de96721c36c95f00c32677]
entity images and metadata--><rect fill="#FEFECE" filter="url(#f1xvhnw64yx396)" height="22.2969" style="stroke: #000000; stroke-width: 1.5;" width="169" x="1028.5" y="513"/><text fill="#000000" font-family="sans-serif" font-size="14" lengthAdjust="spacingAndGlyphs" textLength="149" x="1038.5" y="528.9951">images and metadata</text><!--MD5=[57feeaf0b3adcae0b118adc8d4c3a3ad]
entity bass-cd-1.2.png--><polygon fill="#FEFECE" filter="url(#f1xvhnw64yx396)" points="750.5,506,750.5,542.2969,883.5,542.2969,883.5,516,873.5,506,750.5,506" style="stroke: #000000; stroke-width: 1.5;"/><path d="M873.5,506 L873.5,516 L883.5,516 " fill="#FEFECE" style="stroke: #000000; stroke-width: 1.5;"/><text fill="#000000" font-family="sans-serif" font-size="14" lengthAdjust="spacingAndGlyphs" textLength="113" x="760.5" y="528.9951">bass-cd-1.2.png</text><!--MD5=[20f115a46f3e3ec72203cc15f2657467]
entity gamelist.xml--><polygon fill="#FEFECE" filter="url(#f1xvhnw64yx396)" points="476.5,506,476.5,542.2969,581.5,542.2969,581.5,516,571.5,506,476.5,506" style="stroke: #000000; stroke-width: 1.5;"/><path d="M571.5,506 L571.5,516 L581.5,516 " fill="#FEFECE" style="stroke: #000000; stroke-width: 1.5;"/><text fill="#000000" font-family="sans-serif" font-size="14" lengthAdjust="spacingAndGlyphs" textLength="85" x="486.5" y="528.9951">gamelist.xml</text><!--MD5=[3bf1a3617778081770d07e2718291b3e]
entity bass-cd-1.2.zip--><polygon fill="#FEFECE" filter="url(#f1xvhnw64yx396)" points="158,506,158,542.2969,284,542.2969,284,516,274,506,158,506" style="stroke: #000000; stroke-width: 1.5;"/><path d="M274,506 L274,516 L284,516 " fill="#FEFECE" style="stroke: #000000; stroke-width: 1.5;"/><text fill="#000000" font-family="sans-serif" font-size="14" lengthAdjust="spacingAndGlyphs" textLength="106" x="168" y="528.9951">bass-cd-1.2.zip</text><!--MD5=[821da973449f357db0bedf6c9ef3a3f5]
entity raspberrypi_downloaded_media--><polygon fill="#BADA55" filter="url(#f1xvhnw64yx396)" points="1887,157,1933,157,1940,178,2135,178,2135,212.5938,1887,212.5938,1887,157" style="stroke: #000000; stroke-width: 1.5;"/><line style="stroke: #000000; stroke-width: 1.5;" x1="1887" x2="1940" y1="178" y2="178"/><text fill="#000000" font-family="sans-serif" font-size="14" lengthAdjust="spacingAndGlyphs" textLength="134" x="1897" y="197.9951">downloaded_media</text><!--MD5=[cdc6febab90fadbe7e220ea766fe44a5]
entity raspberrypi_gamelists--><polygon fill="#BADA55" filter="url(#f1xvhnw64yx396)" points="1672,157,1718,157,1725,178,1852,178,1852,212.5938,1672,212.5938,1672,157" style="stroke: #000000; stroke-width: 1.5;"/><line style="stroke: #000000; stroke-width: 1.5;" x1="1672" x2="1725" y1="178" y2="178"/><text fill="#000000" font-family="sans-serif" font-size="14" lengthAdjust="spacingAndGlyphs" textLength="66" x="1682" y="197.9951">gamelists</text><!--MD5=[3318fa35f41ae84afb7e51075789a7f6]
entity raspberrypi_roms--><polygon fill="#BADA55" filter="url(#f1xvhnw64yx396)" points="1466.5,157,1512.5,157,1519.5,178,1615.5,178,1615.5,212.5938,1466.5,212.5938,1466.5,157" style="stroke: #000000; stroke-width: 1.5;"/><line style="stroke: #000000; stroke-width: 1.5;" x1="1466.5" x2="1519.5" y1="178" y2="178"/><text fill="#000000" font-family="sans-serif" font-size="14" lengthAdjust="spacingAndGlyphs" textLength="35" x="1476.5" y="197.9951">roms</text><!--MD5=[8c486c3ff19d49538faa25b942efeec7]
entity id_rsa--><polygon fill="#FEFECE" filter="url(#f1xvhnw64yx396)" points="1318.5,167,1318.5,203.2969,1409.5,203.2969,1409.5,177,1399.5,167,1318.5,167" style="stroke: #000000; stroke-width: 1.5;"/><path d="M1399.5,167 L1399.5,177 L1409.5,177 " fill="#FEFECE" style="stroke: #000000; stroke-width: 1.5;"/><text fill="#000000" font-family="sans-serif" font-size="14" lengthAdjust="spacingAndGlyphs" textLength="71" x="1328.5" y="189.9951">id_rsa.pub</text><!--MD5=[a2c0bd3902e059afaae6a2702593dc5a]
entity raspberrypi_scrapervm--><polygon fill="#BADA55" filter="url(#f1xvhnw64yx396)" points="1529.5,496,1575.5,496,1582.5,517,1772.5,517,1772.5,551.5938,1529.5,551.5938,1529.5,496" style="stroke: #000000; stroke-width: 1.5;"/><line style="stroke: #000000; stroke-width: 1.5;" x1="1529.5" x2="1582.5" y1="517" y2="517"/><text fill="#000000" font-family="sans-serif" font-size="14" lengthAdjust="spacingAndGlyphs" textLength="213" x="1539.5" y="536.9951">[date-time stamp]__retro-cloud</text><!--MD5=[dae4274460afd338a99d9aeaeb97b648]
entity scrapervm_mount--><polygon fill="#BADA55" filter="url(#f1xvhnw64yx396)" points="620,157,666,157,673,178,774,178,774,212.5938,620,212.5938,620,157" style="stroke: #000000; stroke-width: 1.5;"/><line style="stroke: #000000; stroke-width: 1.5;" x1="620" x2="673" y1="178" y2="178"/><text fill="#000000" font-family="sans-serif" font-size="14" lengthAdjust="spacingAndGlyphs" textLength="120" x="630" y="197.9951">retro-cloud-share</text><!--MD5=[5e8ebbd88ec5cc908cef6aa507f0157a]
entity scrapervm_artwork--><polygon fill="#C0FFEE" filter="url(#f1xvhnw64yx396)" points="1116,167,1116,203.2969,1214,203.2969,1214,177,1204,167,1116,167" style="stroke: #000000; stroke-width: 1.5;"/><path d="M1204,167 L1204,177 L1214,177 " fill="#C0FFEE" style="stroke: #000000; stroke-width: 1.5;"/><text fill="#000000" font-family="sans-serif" font-size="14" lengthAdjust="spacingAndGlyphs" textLength="78" x="1126" y="189.9951">artwork.xml</text><!--MD5=[b44c03154f6fbda6de28c6a8c34123f2]
entity scrapervm_config--><polygon fill="#C0FFEE" filter="url(#f1xvhnw64yx396)" points="999.5,167,999.5,203.2969,1080.5,203.2969,1080.5,177,1070.5,167,999.5,167" style="stroke: #000000; stroke-width: 1.5;"/><path d="M1070.5,167 L1070.5,177 L1080.5,177 " fill="#C0FFEE" style="stroke: #000000; stroke-width: 1.5;"/><text fill="#000000" font-family="sans-serif" font-size="14" lengthAdjust="spacingAndGlyphs" textLength="61" x="1009.5" y="189.9951">config.ini</text><!--MD5=[7413c226c16d0e7ef15783e51f320594]
entity authorized_keys--><polygon fill="#FEFECE" filter="url(#f1xvhnw64yx396)" points="809.5,167,809.5,203.2969,942.5,203.2969,942.5,177,932.5,167,809.5,167" style="stroke: #000000; stroke-width: 1.5;"/><path d="M932.5,167 L932.5,177 L942.5,177 " fill="#FEFECE" style="stroke: #000000; stroke-width: 1.5;"/><text fill="#000000" font-family="sans-serif" font-size="14" lengthAdjust="spacingAndGlyphs" textLength="113" x="819.5" y="189.9951">authorized_keys</text><!--MD5=[762a30b10022e3a24fb180e432d841c0]
link authorized_keys to id_rsa--><path d="M884.46,166.859 C901.154,133.519 941.87,63.414 1000.5,36 C1085.85,-3.909 1125.3,0.305 1212.5,36 C1278.05,62.833 1330.49,133.229 1352.62,166.75 " fill="none" id="authorized_keys-id_rsa" style="stroke: #A80036; stroke-width: 1.0; stroke-dasharray: 7.0,7.0;"/><!--MD5=[eefc4e7b468a6f9e7e10e18519fb852d]
reverse link raspberrypi_scrapervm to scrapervm_mount--><path d="M1615.73,492.564 C1545.21,433.9 1379.32,306.756 1214,259 C1169.05,246.015 837.597,265.143 793,251 C768.826,243.334 745.192,227.468 727.423,213.331 " fill="none" id="raspberrypi_scrapervm&lt;-scrapervm_mount" style="stroke: #A80036; stroke-width: 1.0;"/><polygon fill="#A80036" points="1619.83,495.987,1615.4977,487.1421,1615.9965,492.777,1610.3617,493.2757,1619.83,495.987" style="stroke: #A80036; stroke-width: 1.0;"/><!--MD5=[0afbebae511c8142ec245654a58a043f]
link raspberrypi_gamelists to raspberrypi_scrapervm--><path d="M1753.1,213.008 C1732.32,276.109 1680.76,432.636 1659.94,495.863 " fill="none" id="raspberrypi_gamelists-raspberrypi_scrapervm" style="stroke: #A80036; stroke-width: 1.0;"/><!--MD5=[af89d408f3225cfebc3842706b25841d]
link raspberrypi_downloaded_media to raspberrypi_scrapervm--><path d="M1982.15,213.008 C1914.74,276.109 1747.53,432.636 1679.99,495.863 " fill="none" id="raspberrypi_downloaded_media-raspberrypi_scrapervm" style="stroke: #A80036; stroke-width: 1.0;"/><!--MD5=[067f27ce3b31f212e8902299014e5ffd]
link raspberrypi_roms to raspberrypi_scrapervm--><path d="M1549.82,213.008 C1570.41,276.109 1621.5,432.636 1642.14,495.863 " fill="none" id="raspberrypi_roms-raspberrypi_scrapervm" style="stroke: #A80036; stroke-width: 1.0;"/><!--MD5=[33015a0d53b8c768598da2108afc9453]
reverse link raspberrypi_gamelists to scraper_gamelists--><path d="M1715.86,215.557 C1691.87,229.212 1661.45,243.941 1632,251 C1616.17,254.794 472.146,248.163 460,259 C416.593,297.7285 408.1627,362.2873 410.7944,417.8676 C411.4523,431.7627 412.8016,445.0967 414.4685,457.3256 C415.302,463.44 416.2149,469.2782 417.1605,474.7722 C417.6334,477.5192 418.1143,480.1801 418.5977,482.7464 C418.8393,484.0296 419.0816,485.2892 419.3237,486.524 C419.4448,487.1414 419.5658,487.7526 419.6867,488.3576 C419.7471,488.66 419.8075,488.9609 419.8679,489.2602 " fill="none" id="raspberrypi_gamelists&lt;-scraper_gamelists" style="stroke: #A80036; stroke-width: 1.0; stroke-dasharray: 7.0,7.0;"/><polygon fill="#A80036" points="1720.27,213.022,1710.4755,214.0552,1715.9392,215.5208,1714.4736,220.9845,1720.27,213.022" style="stroke: #A80036; stroke-width: 1.0;"/><!--MD5=[47b3b319789301ec25a57886a4fcb1dc]
reverse link raspberrypi_downloaded_media to scraper_downloadedmedia--><path d="M1960.97,215.4 C1934.81,229.105 1901.71,243.926 1870,251 C1854.6,254.436 746.225,249.025 734,259 C711.13,277.6613 696.1249,303.1261 686.4987,330.9156 C681.6856,344.8104 678.2172,359.2864 675.7829,373.7837 C675.6307,374.6898 675.4826,375.596 675.3385,376.5021 " fill="none" id="raspberrypi_downloaded_media&lt;-scraper_downloadedmedia" style="stroke: #A80036; stroke-width: 1.0; stroke-dasharray: 7.0,7.0;"/><polygon fill="#A80036" points="1965.44,213.034,1955.6148,213.7161,1961.0226,215.3763,1959.3624,220.784,1965.44,213.034" style="stroke: #A80036; stroke-width: 1.0;"/><!--MD5=[05309683eeaa6a278f576c2aa5b31d63]
reverse link raspberrypi_roms to roms_roms--><path d="M1500.12,215.875 C1479.09,229.428 1452.38,243.973 1426,251 C1408.77,255.591 155.311,247.131 142,259 C120.2908,278.358 112.1995,342.614 109.5801,402.8821 C109.4163,406.6489 109.274,410.4001 109.1511,414.1237 C109.0896,415.9856 109.0329,417.8405 108.9809,419.6871 " fill="none" id="raspberrypi_roms&lt;-roms_roms" style="stroke: #A80036; stroke-width: 1.0; stroke-dasharray: 7.0,7.0;"/><polygon fill="#A80036" points="1504.52,213.001,1494.7961,214.5649,1500.3314,215.7315,1499.1649,221.2667,1504.52,213.001" style="stroke: #A80036; stroke-width: 1.0;"/><!--MD5=[ebd2fdf810213c92ed2208cd597b6d9e]
link scrapervm_mount to scraper_share--><path d="M614.708,190.693 C458.627,200.348 131.733,224.468 94,259 C91.2781,261.491 88.6706,264.0785 86.1732,266.7543 C84.9245,268.0922 83.7032,269.4522 82.509,270.8332 C81.9118,271.5237 81.3214,272.2194 80.7377,272.9203 C80.4458,273.2707 80.1556,273.6225 79.8671,273.9755 " fill="none" id="scrapervm_mount-scraper_share" style="stroke: #A80036; stroke-width: 1.0;"/><polygon fill="#A80036" points="79.8671,273.9755,88.66,269.5388,83.0315,270.1043,82.4661,264.4757,79.8671,273.9755" style="stroke: #A80036; stroke-width: 1.0;"/><polygon fill="#A80036" points="619.732,190.384,610.5033,186.9443,614.7414,190.6911,610.9947,194.9292,619.732,190.384" style="stroke: #A80036; stroke-width: 1.0;"/><!--MD5=[21f8e713c19e3f718b209b895e284b23]
@startuml
storage "retro-cloud" as scraper_share {
    folder cache {
        card "images and metadata"
    }
    folder ".emulationstation" {
        folder downloaded_media as scraper_downloadedmedia {
            folder "scummvm" as scraper_downloadedmedia_scummvm {
                folder screenshots {
                    file "bass-cd-1.2.png"
                }
            }
        }
        folder gamelists as scraper_gamelists {
            folder "scummvm" as scraper_gamelists_scummvm {
                file "gamelist.xml"
            }
        }
    }
    folder RetroPie {
        folder roms as roms_roms {
            folder "scummvm" as roms_scummvm {
                file "bass-cd-1.2.zip"
            }
        }
    }
}

node raspberry_pi {
    folder ".emulationstation" as raspberrypi_emulationstation {
        folder downloaded_media as raspberrypi_downloaded_media #BADA55
        folder gamelists as raspberrypi_gamelists #BADA55
    }
    folder RetroPie as raspberrpi_retropie {
        folder roms as raspberrypi_roms #BADA55
    }
    folder ".ssh" as raspberrypi_ssh {
        file "id_rsa.pub" as id_rsa
    }
    folder mnt as raspberrypi_mount {
        folder "[date-time stamp]__retro-cloud" as raspberrypi_scrapervm #BADA55
    }
}

node scraper_vm {
    folder ".skyscraper" as scrapervm_skyscraper {
        file "artwork.xml" as scrapervm_artwork #C0FFEE
        file "config.ini" as scrapervm_config #C0FFEE
    }
    folder ".ssh" {
        file authorized_keys
    }
    folder "retro-cloud-share" as scrapervm_mount #BADA55
}

authorized_keys .. id_rsa
raspberrypi_scrapervm <- - scrapervm_mount
raspberrypi_gamelists - - raspberrypi_scrapervm
raspberrypi_downloaded_media - - raspberrypi_scrapervm
raspberrypi_roms - - raspberrypi_scrapervm
raspberrypi_gamelists <.. scraper_gamelists
raspberrypi_downloaded_media <.. scraper_downloadedmedia
raspberrypi_roms <.. roms_roms

scrapervm_mount <- -> scraper_share
@enduml

PlantUML version 1.2020.02(Sun Mar 01 10:22:07 UTC 2020)
(GPL source distribution)
Java Runtime: Java(TM) SE Runtime Environment
JVM: Java HotSpot(TM) 64-Bit Server VM
Java Version: 1.7.0_25-b15
Operating System: Linux
Default Encoding: UTF-8
Language: en
Country: US
--></g></svg>