<?xml version="1.0" encoding="UTF-8" standalone="no"?><svg xmlns="http://www.w3.org/2000/svg" xmlns:xlink="http://www.w3.org/1999/xlink" contentScriptType="application/ecmascript" contentStyleType="text/css" height="1027px" preserveAspectRatio="none" style="width:3079px;height:1027px;" version="1.1" viewBox="0 0 3079 1027" width="3079px" zoomAndPan="magnify"><defs><filter height="300%" id="ftwbin9ezk8uo" width="300%" x="-1" y="-1"><feGaussianBlur result="blurOut" stdDeviation="2.0"/><feColorMatrix in="blurOut" result="blurOut2" type="matrix" values="0 0 0 0 0 0 0 0 0 0 0 0 0 0 0 0 0 0 .4 0"/><feOffset dx="4.0" dy="4.0" in="blurOut2" result="blurOut3"/><feBlend in="SourceGraphic" in2="blurOut3" mode="normal"/></filter></defs><g><!--MD5=[d8c829e63b7fe607ef670f9e48a4a34a]
cluster roms_share--><rect fill="#FFFFFF" filter="url(#ftwbin9ezk8uo)" height="269" rx="35" ry="35" style="stroke: #000000; stroke-width: 1.5;" width="318" x="359" y="699"/><text fill="#000000" font-family="sans-serif" font-size="14" font-weight="bold" lengthAdjust="spacingAndGlyphs" textLength="91" x="472.5" y="718.9951">roms-share</text><!--MD5=[724368704ee42a399dfb2c968f2d9d7c]
cluster roms_roms--><polygon fill="#FFFFFF" filter="url(#ftwbin9ezk8uo)" points="407,758,453,758,460,780.2969,637,780.2969,637,928,407,928,407,758" style="stroke: #000000; stroke-width: 1.5;"/><line style="stroke: #000000; stroke-width: 1.5;" x1="407" x2="460" y1="780.2969" y2="780.2969"/><text fill="#000000" font-family="sans-serif" font-size="14" font-weight="bold" lengthAdjust="spacingAndGlyphs" textLength="40" x="411" y="772.9951">roms</text><!--MD5=[d4dcf26dd5110d415722840486c7680b]
cluster roms_scummvm--><polygon fill="#FFFFFF" filter="url(#ftwbin9ezk8uo)" points="447,809,532,809,539,831.2969,605,831.2969,605,896,447,896,447,809" style="stroke: #000000; stroke-width: 1.5;"/><line style="stroke: #000000; stroke-width: 1.5;" x1="447" x2="539" y1="831.2969" y2="831.2969"/><text fill="#000000" font-family="sans-serif" font-size="14" font-weight="bold" lengthAdjust="spacingAndGlyphs" textLength="79" x="451" y="823.9951">scummvm</text><!--MD5=[213ea740c569fadc3f4e150f5c2bff2e]
cluster scraper_share--><rect fill="#FFFFFF" filter="url(#ftwbin9ezk8uo)" height="403" rx="35" ry="35" style="stroke: #000000; stroke-width: 1.5;" width="898" x="2170" y="613"/><text fill="#000000" font-family="sans-serif" font-size="14" font-weight="bold" lengthAdjust="spacingAndGlyphs" textLength="112" x="2563" y="632.9951">scraper-share</text><!--MD5=[6e2bc53f2b489a463b0855903b315b97]
cluster cache--><polygon fill="#FFFFFF" filter="url(#ftwbin9ezk8uo)" points="2834,816,2887,816,2894,838.2969,3036,838.2969,3036,889,2834,889,2834,816" style="stroke: #000000; stroke-width: 1.5;"/><line style="stroke: #000000; stroke-width: 1.5;" x1="2834" x2="2894" y1="838.2969" y2="838.2969"/><text fill="#000000" font-family="sans-serif" font-size="14" font-weight="bold" lengthAdjust="spacingAndGlyphs" textLength="47" x="2838" y="830.9951">cache</text><!--MD5=[d488920694292103d4ceb8c6110bf2d3]
cluster output--><polygon fill="#FFFFFF" filter="url(#ftwbin9ezk8uo)" points="2210,664,2268,664,2275,686.2969,2810,686.2969,2810,984,2210,984,2210,664" style="stroke: #000000; stroke-width: 1.5;"/><line style="stroke: #000000; stroke-width: 1.5;" x1="2210" x2="2275" y1="686.2969" y2="686.2969"/><text fill="#000000" font-family="sans-serif" font-size="14" font-weight="bold" lengthAdjust="spacingAndGlyphs" textLength="52" x="2214" y="678.9951">output</text><!--MD5=[697b3354a9f52e8346827e836942d9ac]
cluster scraper_downloadedmedia--><polygon fill="#FFFFFF" filter="url(#ftwbin9ezk8uo)" points="2492,715,2649,715,2656,737.2969,2778,737.2969,2778,952,2492,952,2492,715" style="stroke: #000000; stroke-width: 1.5;"/><line style="stroke: #000000; stroke-width: 1.5;" x1="2492" x2="2656" y1="737.2969" y2="737.2969"/><text fill="#000000" font-family="sans-serif" font-size="14" font-weight="bold" lengthAdjust="spacingAndGlyphs" textLength="151" x="2496" y="729.9951">downloaded_media</text><!--MD5=[a800d42652f2ea8a7a583938cb054bf1]
cluster scraper_downloadedmedia_scummvm--><polygon fill="#FFFFFF" filter="url(#ftwbin9ezk8uo)" points="2532,766,2617,766,2624,788.2969,2746,788.2969,2746,920,2532,920,2532,766" style="stroke: #000000; stroke-width: 1.5;"/><line style="stroke: #000000; stroke-width: 1.5;" x1="2532" x2="2624" y1="788.2969" y2="788.2969"/><text fill="#000000" font-family="sans-serif" font-size="14" font-weight="bold" lengthAdjust="spacingAndGlyphs" textLength="79" x="2536" y="780.9951">scummvm</text><!--MD5=[000223e6bce3c8893b15940fba3a1ae1]
cluster screenshots--><polygon fill="#FFFFFF" filter="url(#ftwbin9ezk8uo)" points="2556,809,2661,809,2668,831.2969,2722,831.2969,2722,896,2556,896,2556,809" style="stroke: #000000; stroke-width: 1.5;"/><line style="stroke: #000000; stroke-width: 1.5;" x1="2556" x2="2668" y1="831.2969" y2="831.2969"/><text fill="#000000" font-family="sans-serif" font-size="14" font-weight="bold" lengthAdjust="spacingAndGlyphs" textLength="99" x="2560" y="823.9951">screenshots</text><!--MD5=[564b22ef8b6d7af2d51b48a1455f591b]
cluster scraper_gamelists--><polygon fill="#FFFFFF" filter="url(#ftwbin9ezk8uo)" points="2242,758,2323,758,2330,780.2969,2452,780.2969,2452,928,2242,928,2242,758" style="stroke: #000000; stroke-width: 1.5;"/><line style="stroke: #000000; stroke-width: 1.5;" x1="2242" x2="2330" y1="780.2969" y2="780.2969"/><text fill="#000000" font-family="sans-serif" font-size="14" font-weight="bold" lengthAdjust="spacingAndGlyphs" textLength="75" x="2246" y="772.9951">gamelists</text><!--MD5=[8f3dba0732d967c0df79d309fe57a2c7]
cluster scraper_gamelists_scummvm--><polygon fill="#FFFFFF" filter="url(#ftwbin9ezk8uo)" points="2282,809,2367,809,2374,831.2969,2420,831.2969,2420,896,2282,896,2282,809" style="stroke: #000000; stroke-width: 1.5;"/><line style="stroke: #000000; stroke-width: 1.5;" x1="2282" x2="2374" y1="831.2969" y2="831.2969"/><text fill="#000000" font-family="sans-serif" font-size="14" font-weight="bold" lengthAdjust="spacingAndGlyphs" textLength="79" x="2286" y="823.9951">scummvm</text><!--MD5=[f92d360a1ab1165eb003422ff9636935]
cluster raspberry_pi--><polygon fill="#FFFFFF" filter="url(#ftwbin9ezk8uo)" points="1241,396,1251,386,2138,386,2138,920,2128,930,1241,930,1241,396" style="stroke: #000000; stroke-width: 1.5;"/><line style="stroke: #000000; stroke-width: 1.5;" x1="2128" x2="2137" y1="396" y2="387"/><line style="stroke: #000000; stroke-width: 1.5;" x1="1241" x2="2128" y1="396" y2="396"/><line style="stroke: #000000; stroke-width: 1.5;" x1="2128" x2="2128" y1="396" y2="930"/><text fill="#000000" font-family="sans-serif" font-size="14" font-weight="bold" lengthAdjust="spacingAndGlyphs" textLength="99" x="1636" y="411.9951">raspberry_pi</text><!--MD5=[7d0f2ea4e36aa958ee1e59388a96fb31]
cluster raspberrypi_emulationstation--><polygon fill="#FFFFFF" filter="url(#ftwbin9ezk8uo)" points="1619,434,1761,434,1768,456.2969,2114,456.2969,2114,541,1619,541,1619,434" style="stroke: #000000; stroke-width: 1.5;"/><line style="stroke: #000000; stroke-width: 1.5;" x1="1619" x2="1768" y1="456.2969" y2="456.2969"/><text fill="#000000" font-family="sans-serif" font-size="14" font-weight="bold" lengthAdjust="spacingAndGlyphs" textLength="136" x="1623" y="448.9951">.emulationstation</text><!--MD5=[0c85290c76c084d0f3edf007d1e1ebef]
cluster raspberrpi_retropie--><polygon fill="#FFFFFF" filter="url(#ftwbin9ezk8uo)" points="1413,434,1486,434,1493,456.2969,1595,456.2969,1595,541,1413,541,1413,434" style="stroke: #000000; stroke-width: 1.5;"/><line style="stroke: #000000; stroke-width: 1.5;" x1="1413" x2="1493" y1="456.2969" y2="456.2969"/><text fill="#000000" font-family="sans-serif" font-size="14" font-weight="bold" lengthAdjust="spacingAndGlyphs" textLength="67" x="1417" y="448.9951">RetroPie</text><!--MD5=[cceeca3b26ee61cb6bf7b2c85632c6d2]
cluster raspberrypi_ssh--><polygon fill="#FFFFFF" filter="url(#ftwbin9ezk8uo)" points="1265,444,1304,444,1311,466.2969,1389,466.2969,1389,531,1265,531,1265,444" style="stroke: #000000; stroke-width: 1.5;"/><line style="stroke: #000000; stroke-width: 1.5;" x1="1265" x2="1311" y1="466.2969" y2="466.2969"/><text fill="#000000" font-family="sans-serif" font-size="14" font-weight="bold" lengthAdjust="spacingAndGlyphs" textLength="33" x="1269" y="458.9951">.ssh</text><!--MD5=[b24681d8753d4854684825e02c0e23f7]
cluster raspberrypi_mount--><polygon fill="#FFFFFF" filter="url(#ftwbin9ezk8uo)" points="1505,799,1561,799,1568,821.2969,1723,821.2969,1723,906,1505,906,1505,799" style="stroke: #000000; stroke-width: 1.5;"/><line style="stroke: #000000; stroke-width: 1.5;" x1="1505" x2="1568" y1="821.2969" y2="821.2969"/><text fill="#000000" font-family="sans-serif" font-size="14" font-weight="bold" lengthAdjust="spacingAndGlyphs" textLength="50" x="1509" y="813.9951">mount</text><!--MD5=[5a609c4c1f8c145238265b0a0da7c10c]
cluster scraper_vm--><polygon fill="#FFFFFF" filter="url(#ftwbin9ezk8uo)" points="22,217,32,207,1217,207,1217,571,1207,581,22,581,22,217" style="stroke: #000000; stroke-width: 1.5;"/><line style="stroke: #000000; stroke-width: 1.5;" x1="1207" x2="1216" y1="217" y2="208"/><line style="stroke: #000000; stroke-width: 1.5;" x1="22" x2="1207" y1="217" y2="217"/><line style="stroke: #000000; stroke-width: 1.5;" x1="1207" x2="1207" y1="217" y2="581"/><text fill="#000000" font-family="sans-serif" font-size="14" font-weight="bold" lengthAdjust="spacingAndGlyphs" textLength="91" x="570" y="232.9951">scraper_vm</text><!--MD5=[f6e243222f570263fbb26d0b3fbee5d8]
cluster scrapervm_skyscraper--><polygon fill="#FFFFFF" filter="url(#ftwbin9ezk8uo)" points="946,265,1045,265,1052,287.2969,1193,287.2969,1193,352,946,352,946,265" style="stroke: #000000; stroke-width: 1.5;"/><line style="stroke: #000000; stroke-width: 1.5;" x1="946" x2="1052" y1="287.2969" y2="287.2969"/><text fill="#000000" font-family="sans-serif" font-size="14" font-weight="bold" lengthAdjust="spacingAndGlyphs" textLength="93" x="950" y="279.9951">.skyscraper</text><!--MD5=[263942b849f81fa1b444387ec239a720]
cluster scrapervm_emulationstation--><polygon fill="#FFFFFF" filter="url(#ftwbin9ezk8uo)" points="246,255,388,255,395,277.2969,732,277.2969,732,362,246,362,246,255" style="stroke: #000000; stroke-width: 1.5;"/><line style="stroke: #000000; stroke-width: 1.5;" x1="246" x2="395" y1="277.2969" y2="277.2969"/><text fill="#000000" font-family="sans-serif" font-size="14" font-weight="bold" lengthAdjust="spacingAndGlyphs" textLength="136" x="250" y="269.9951">.emulationstation</text><!--MD5=[9249ac726a99bf6752d1ed517b6a14bb]
cluster scrapervm_retropie--><polygon fill="#FFFFFF" filter="url(#ftwbin9ezk8uo)" points="46,255,119,255,126,277.2969,222,277.2969,222,362,46,362,46,255" style="stroke: #000000; stroke-width: 1.5;"/><line style="stroke: #000000; stroke-width: 1.5;" x1="46" x2="126" y1="277.2969" y2="277.2969"/><text fill="#000000" font-family="sans-serif" font-size="14" font-weight="bold" lengthAdjust="spacingAndGlyphs" textLength="67" x="50" y="269.9951">RetroPie</text><!--MD5=[e19b3a96f885c5eface718264468e806]
cluster .ssh--><polygon fill="#FFFFFF" filter="url(#ftwbin9ezk8uo)" points="756,265,795,265,802,287.2969,922,287.2969,922,352,756,352,756,265" style="stroke: #000000; stroke-width: 1.5;"/><line style="stroke: #000000; stroke-width: 1.5;" x1="756" x2="802" y1="287.2969" y2="287.2969"/><text fill="#000000" font-family="sans-serif" font-size="14" font-weight="bold" lengthAdjust="spacingAndGlyphs" textLength="33" x="760" y="279.9951">.ssh</text><!--MD5=[d1d0b39416e73d2d73df0afaf0409847]
cluster scrapervm_mount--><polygon fill="#FFFFFF" filter="url(#ftwbin9ezk8uo)" points="251,426,307,426,314,448.2969,737,448.2969,737,549,251,549,251,426" style="stroke: #000000; stroke-width: 1.5;"/><line style="stroke: #000000; stroke-width: 1.5;" x1="251" x2="314" y1="448.2969" y2="448.2969"/><text fill="#000000" font-family="sans-serif" font-size="14" font-weight="bold" lengthAdjust="spacingAndGlyphs" textLength="50" x="255" y="440.9951">mount</text><!--MD5=[f0a1f060b665e6408f53f22e866c80cf]
cluster dev_computer--><polygon fill="#FFFFFF" filter="url(#ftwbin9ezk8uo)" points="922,34,932,24,1217,24,1217,173,1207,183,922,183,922,34" style="stroke: #000000; stroke-width: 1.5;"/><line style="stroke: #000000; stroke-width: 1.5;" x1="1207" x2="1216" y1="34" y2="25"/><line style="stroke: #000000; stroke-width: 1.5;" x1="922" x2="1207" y1="34" y2="34"/><line style="stroke: #000000; stroke-width: 1.5;" x1="1207" x2="1207" y1="34" y2="183"/><text fill="#000000" font-family="sans-serif" font-size="14" font-weight="bold" lengthAdjust="spacingAndGlyphs" textLength="112" x="1009.5" y="49.9951">dev_computer</text><!--MD5=[ae05f9638a69296a8b9745c947f49924]
cluster dev_skyscraper--><polygon fill="#FFFFFF" filter="url(#ftwbin9ezk8uo)" points="946,72,1045,72,1052,94.2969,1193,94.2969,1193,159,946,159,946,72" style="stroke: #000000; stroke-width: 1.5;"/><line style="stroke: #000000; stroke-width: 1.5;" x1="946" x2="1052" y1="94.2969" y2="94.2969"/><text fill="#000000" font-family="sans-serif" font-size="14" font-weight="bold" lengthAdjust="spacingAndGlyphs" textLength="93" x="950" y="86.9951">.skyscraper</text><!--MD5=[3bf1a3617778081770d07e2718291b3e]
entity bass-cd-1.2.zip--><polygon fill="#FEFECE" filter="url(#ftwbin9ezk8uo)" points="463,844,463,880.2969,589,880.2969,589,854,579,844,463,844" style="stroke: #000000; stroke-width: 1.5;"/><path d="M579,844 L579,854 L589,854 " fill="#FEFECE" style="stroke: #000000; stroke-width: 1.5;"/><text fill="#000000" font-family="sans-serif" font-size="14" lengthAdjust="spacingAndGlyphs" textLength="106" x="473" y="866.9951">bass-cd-1.2.zip</text><!--MD5=[7fb5956482de96721c36c95f00c32677]
entity images and metadata--><rect fill="#FEFECE" filter="url(#ftwbin9ezk8uo)" height="22.2969" style="stroke: #000000; stroke-width: 1.5;" width="169" x="2850.5" y="851"/><text fill="#000000" font-family="sans-serif" font-size="14" lengthAdjust="spacingAndGlyphs" textLength="149" x="2860.5" y="866.9951">images and metadata</text><!--MD5=[57feeaf0b3adcae0b118adc8d4c3a3ad]
entity bass-cd-1.2.png--><polygon fill="#FEFECE" filter="url(#ftwbin9ezk8uo)" points="2572.5,844,2572.5,880.2969,2705.5,880.2969,2705.5,854,2695.5,844,2572.5,844" style="stroke: #000000; stroke-width: 1.5;"/><path d="M2695.5,844 L2695.5,854 L2705.5,854 " fill="#FEFECE" style="stroke: #000000; stroke-width: 1.5;"/><text fill="#000000" font-family="sans-serif" font-size="14" lengthAdjust="spacingAndGlyphs" textLength="113" x="2582.5" y="866.9951">bass-cd-1.2.png</text><!--MD5=[20f115a46f3e3ec72203cc15f2657467]
entity gamelist.xml--><polygon fill="#FEFECE" filter="url(#ftwbin9ezk8uo)" points="2298.5,844,2298.5,880.2969,2403.5,880.2969,2403.5,854,2393.5,844,2298.5,844" style="stroke: #000000; stroke-width: 1.5;"/><path d="M2393.5,844 L2393.5,854 L2403.5,854 " fill="#FEFECE" style="stroke: #000000; stroke-width: 1.5;"/><text fill="#000000" font-family="sans-serif" font-size="14" lengthAdjust="spacingAndGlyphs" textLength="85" x="2308.5" y="866.9951">gamelist.xml</text><!--MD5=[821da973449f357db0bedf6c9ef3a3f5]
entity raspberrypi_downloaded_media--><polygon fill="#BADA55" filter="url(#ftwbin9ezk8uo)" points="1850,469,1896,469,1903,490,2098,490,2098,524.5938,1850,524.5938,1850,469" style="stroke: #000000; stroke-width: 1.5;"/><line style="stroke: #000000; stroke-width: 1.5;" x1="1850" x2="1903" y1="490" y2="490"/><text fill="#000000" font-family="sans-serif" font-size="14" lengthAdjust="spacingAndGlyphs" textLength="134" x="1860" y="509.9951">downloaded_media</text><!--MD5=[cdc6febab90fadbe7e220ea766fe44a5]
entity raspberrypi_gamelists--><polygon fill="#BADA55" filter="url(#ftwbin9ezk8uo)" points="1635,469,1681,469,1688,490,1815,490,1815,524.5938,1635,524.5938,1635,469" style="stroke: #000000; stroke-width: 1.5;"/><line style="stroke: #000000; stroke-width: 1.5;" x1="1635" x2="1688" y1="490" y2="490"/><text fill="#000000" font-family="sans-serif" font-size="14" lengthAdjust="spacingAndGlyphs" textLength="66" x="1645" y="509.9951">gamelists</text><!--MD5=[3318fa35f41ae84afb7e51075789a7f6]
entity raspberrypi_roms--><polygon fill="#BADA55" filter="url(#ftwbin9ezk8uo)" points="1429.5,469,1475.5,469,1482.5,490,1578.5,490,1578.5,524.5938,1429.5,524.5938,1429.5,469" style="stroke: #000000; stroke-width: 1.5;"/><line style="stroke: #000000; stroke-width: 1.5;" x1="1429.5" x2="1482.5" y1="490" y2="490"/><text fill="#000000" font-family="sans-serif" font-size="14" lengthAdjust="spacingAndGlyphs" textLength="35" x="1439.5" y="509.9951">roms</text><!--MD5=[8c486c3ff19d49538faa25b942efeec7]
entity id_rsa--><polygon fill="#FEFECE" filter="url(#ftwbin9ezk8uo)" points="1281.5,479,1281.5,515.2969,1372.5,515.2969,1372.5,489,1362.5,479,1281.5,479" style="stroke: #000000; stroke-width: 1.5;"/><path d="M1362.5,479 L1362.5,489 L1372.5,489 " fill="#FEFECE" style="stroke: #000000; stroke-width: 1.5;"/><text fill="#000000" font-family="sans-serif" font-size="14" lengthAdjust="spacingAndGlyphs" textLength="71" x="1291.5" y="501.9951">id_rsa.pub</text><!--MD5=[a2c0bd3902e059afaae6a2702593dc5a]
entity raspberrypi_scrapervm--><polygon fill="#BADA55" filter="url(#ftwbin9ezk8uo)" points="1521,834,1567,834,1574,855,1707,855,1707,889.5938,1521,889.5938,1521,834" style="stroke: #000000; stroke-width: 1.5;"/><line style="stroke: #000000; stroke-width: 1.5;" x1="1521" x2="1574" y1="855" y2="855"/><text fill="#000000" font-family="sans-serif" font-size="14" lengthAdjust="spacingAndGlyphs" textLength="77" x="1531" y="874.9951">scraper-vm</text><!--MD5=[5e8ebbd88ec5cc908cef6aa507f0157a]
entity scrapervm_artwork--><polygon fill="#C0FFEE" filter="url(#ftwbin9ezk8uo)" points="1079,300,1079,336.2969,1177,336.2969,1177,310,1167,300,1079,300" style="stroke: #000000; stroke-width: 1.5;"/><path d="M1167,300 L1167,310 L1177,310 " fill="#C0FFEE" style="stroke: #000000; stroke-width: 1.5;"/><text fill="#000000" font-family="sans-serif" font-size="14" lengthAdjust="spacingAndGlyphs" textLength="78" x="1089" y="322.9951">artwork.xml</text><!--MD5=[b44c03154f6fbda6de28c6a8c34123f2]
entity scrapervm_config--><polygon fill="#C0FFEE" filter="url(#ftwbin9ezk8uo)" points="962.5,300,962.5,336.2969,1043.5,336.2969,1043.5,310,1033.5,300,962.5,300" style="stroke: #000000; stroke-width: 1.5;"/><path d="M1033.5,300 L1033.5,310 L1043.5,310 " fill="#C0FFEE" style="stroke: #000000; stroke-width: 1.5;"/><text fill="#000000" font-family="sans-serif" font-size="14" lengthAdjust="spacingAndGlyphs" textLength="61" x="972.5" y="322.9951">config.ini</text><!--MD5=[e42f65dadf2661e95361a81bb37d0b2a]
entity scrapervm_downloaded_media--><polygon fill="#BADA55" filter="url(#ftwbin9ezk8uo)" points="472.5,290,518.5,290,525.5,311,715.5,311,715.5,345.5938,472.5,345.5938,472.5,290" style="stroke: #000000; stroke-width: 1.5;"/><line style="stroke: #000000; stroke-width: 1.5;" x1="472.5" x2="525.5" y1="311" y2="311"/><text fill="#000000" font-family="sans-serif" font-size="14" lengthAdjust="spacingAndGlyphs" textLength="134" x="482.5" y="330.9951">downloaded_media</text><!--MD5=[71a14cb6f40204211de0cdd45f86000b]
entity scrapervm_gamelists--><polygon fill="#BADA55" filter="url(#ftwbin9ezk8uo)" points="262.5,290,308.5,290,315.5,311,437.5,311,437.5,345.5938,262.5,345.5938,262.5,290" style="stroke: #000000; stroke-width: 1.5;"/><line style="stroke: #000000; stroke-width: 1.5;" x1="262.5" x2="315.5" y1="311" y2="311"/><text fill="#000000" font-family="sans-serif" font-size="14" lengthAdjust="spacingAndGlyphs" textLength="66" x="272.5" y="330.9951">gamelists</text><!--MD5=[8012f89ce711f37099a2124362857c09]
entity scrapervm_roms--><polygon fill="#BADA55" filter="url(#ftwbin9ezk8uo)" points="62,290,108,290,115,311,206,311,206,345.5938,62,345.5938,62,290" style="stroke: #000000; stroke-width: 1.5;"/><line style="stroke: #000000; stroke-width: 1.5;" x1="62" x2="115" y1="311" y2="311"/><text fill="#000000" font-family="sans-serif" font-size="14" lengthAdjust="spacingAndGlyphs" textLength="35" x="72" y="330.9951">roms</text><!--MD5=[7413c226c16d0e7ef15783e51f320594]
entity authorized_keys--><polygon fill="#FEFECE" filter="url(#ftwbin9ezk8uo)" points="772.5,300,772.5,336.2969,905.5,336.2969,905.5,310,895.5,300,772.5,300" style="stroke: #000000; stroke-width: 1.5;"/><path d="M895.5,300 L895.5,310 L905.5,310 " fill="#FEFECE" style="stroke: #000000; stroke-width: 1.5;"/><text fill="#000000" font-family="sans-serif" font-size="14" lengthAdjust="spacingAndGlyphs" textLength="113" x="782.5" y="322.9951">authorized_keys</text><!--MD5=[ea50dc58ca2f9aa299ae336a822226d7]
entity scrapervm_scrapershare--><polygon fill="#BADA55" filter="url(#ftwbin9ezk8uo)" points="494,469,540,469,547,490,694,490,694,524.5938,494,524.5938,494,469" style="stroke: #000000; stroke-width: 1.5;"/><line style="stroke: #000000; stroke-width: 1.5;" x1="494" x2="547" y1="490" y2="490"/><text fill="#000000" font-family="sans-serif" font-size="14" lengthAdjust="spacingAndGlyphs" textLength="96" x="504" y="509.9951">scraper-share</text><!--MD5=[cb49c577d77cf019b9f992b217cf8071]
entity scrapervm_romsshare--><polygon fill="#BADA55" filter="url(#ftwbin9ezk8uo)" points="275.5,469,321.5,469,328.5,490,458.5,490,458.5,524.5938,275.5,524.5938,275.5,469" style="stroke: #000000; stroke-width: 1.5;"/><line style="stroke: #000000; stroke-width: 1.5;" x1="275.5" x2="328.5" y1="490" y2="490"/><text fill="#000000" font-family="sans-serif" font-size="14" lengthAdjust="spacingAndGlyphs" textLength="79" x="285.5" y="509.9951">roms-share</text><!--MD5=[a80282df46ff9baa1c21ab5e700831ac]
entity dev_artwork--><polygon fill="#FEFECE" filter="url(#ftwbin9ezk8uo)" points="1079,107,1079,143.2969,1177,143.2969,1177,117,1167,107,1079,107" style="stroke: #000000; stroke-width: 1.5;"/><path d="M1167,107 L1167,117 L1177,117 " fill="#FEFECE" style="stroke: #000000; stroke-width: 1.5;"/><text fill="#000000" font-family="sans-serif" font-size="14" lengthAdjust="spacingAndGlyphs" textLength="78" x="1089" y="129.9951">artwork.xml</text><!--MD5=[c430648a80bf6f63938be0b2e67888e5]
entity dev_config--><polygon fill="#FEFECE" filter="url(#ftwbin9ezk8uo)" points="962.5,107,962.5,143.2969,1043.5,143.2969,1043.5,117,1033.5,107,962.5,107" style="stroke: #000000; stroke-width: 1.5;"/><path d="M1033.5,107 L1033.5,117 L1043.5,117 " fill="#FEFECE" style="stroke: #000000; stroke-width: 1.5;"/><text fill="#000000" font-family="sans-serif" font-size="14" lengthAdjust="spacingAndGlyphs" textLength="61" x="972.5" y="129.9951">config.ini</text><!--MD5=[1bd60f4ec41aa44e84f64697800dc603]
link dev_artwork to scrapervm_artwork--><path d="M1128,143.287 C1128,177.947 1128,255.908 1128,294.493 " fill="none" id="dev_artwork-&gt;scrapervm_artwork" style="stroke: #A80036; stroke-width: 1.0;"/><polygon fill="#A80036" points="1128,299.89,1132,290.89,1128,294.89,1124,290.89,1128,299.89" style="stroke: #A80036; stroke-width: 1.0;"/><!--MD5=[717c2b9485d06f3286cd2f10ff0a9617]
link dev_config to scrapervm_config--><path d="M1003,143.287 C1003,177.947 1003,255.908 1003,294.493 " fill="none" id="dev_config-&gt;scrapervm_config" style="stroke: #A80036; stroke-width: 1.0;"/><polygon fill="#A80036" points="1003,299.89,1007,290.89,1003,294.89,999,290.89,1003,299.89" style="stroke: #A80036; stroke-width: 1.0;"/><!--MD5=[762a30b10022e3a24fb180e432d841c0]
link authorized_keys to id_rsa--><path d="M872.252,336.176 C893.135,346.629 920.795,359.872 946,370 C1064.79,417.732 1209.34,461.857 1281.47,482.962 " fill="none" id="authorized_keys-id_rsa" style="stroke: #A80036; stroke-width: 1.0; stroke-dasharray: 7.0,7.0;"/><!--MD5=[eefc4e7b468a6f9e7e10e18519fb852d]
reverse link raspberrypi_scrapervm to scrapervm_mount--><path d="M1543.26,831.983 C1439.33,789.3555 1238.613,707.028 1062.4746,634.7815 C974.4054,598.6583 892.4809,565.0553 831.8717,540.1951 C801.5671,527.7651 776.5914,517.5207 758.8408,510.2399 C749.9655,506.5995 742.8966,503.7 737.8709,501.6386 " fill="none" id="raspberrypi_scrapervm&lt;-scrapervm_mount" style="stroke: #A80036; stroke-width: 1.0;"/><polygon fill="#A80036" points="1548.09,833.967,1541.2847,826.8475,1543.465,832.0673,1538.2451,834.2475,1548.09,833.967" style="stroke: #A80036; stroke-width: 1.0;"/><!--MD5=[0afbebae511c8142ec245654a58a043f]
link raspberrypi_gamelists to raspberrypi_scrapervm--><path d="M1716.66,525.284 C1696.04,592.721 1642.85,766.646 1622.29,833.895 " fill="none" id="raspberrypi_gamelists-raspberrypi_scrapervm" style="stroke: #A80036; stroke-width: 1.0;"/><!--MD5=[af89d408f3225cfebc3842706b25841d]
link raspberrypi_downloaded_media to raspberrypi_scrapervm--><path d="M1946.94,525.284 C1880.06,592.721 1707.57,766.646 1640.88,833.895 " fill="none" id="raspberrypi_downloaded_media-raspberrypi_scrapervm" style="stroke: #A80036; stroke-width: 1.0;"/><!--MD5=[067f27ce3b31f212e8902299014e5ffd]
link raspberrypi_roms to raspberrypi_scrapervm--><path d="M1512.27,525.284 C1532.7,592.721 1585.41,766.646 1605.79,833.895 " fill="none" id="raspberrypi_roms-raspberrypi_scrapervm" style="stroke: #A80036; stroke-width: 1.0;"/><!--MD5=[33015a0d53b8c768598da2108afc9453]
reverse link raspberrypi_gamelists to scraper_gamelists--><path d="M1750.82,529.124 C1770.56,550.374 1799.8,576.803 1832,589 C1853.51,597.148 2229.77,580.7 2246,597 C2266.375,617.4625 2267.6625,681.7358 2263.7163,741.7366 C2263.4696,745.4867 2263.2025,749.22 2262.9184,752.925 C2262.8473,753.8512 2262.7752,754.7757 2262.7021,755.6982 C2262.6656,756.1594 2262.6288,756.6202 2262.5917,757.0804 " fill="none" id="raspberrypi_gamelists&lt;-scraper_gamelists" style="stroke: #A80036; stroke-width: 1.0; stroke-dasharray: 7.0,7.0;"/><polygon fill="#A80036" points="1747.25,525.221,1750.3629,534.565,1750.6207,528.914,1756.2717,529.1718,1747.25,525.221" style="stroke: #A80036; stroke-width: 1.0;"/><!--MD5=[47b3b319789301ec25a57886a4fcb1dc]
reverse link raspberrypi_downloaded_media to scraper_downloadedmedia--><path d="M2084.38,526.309 C2162.41,545.677 2269.67,571.007 2365,589 C2377.14,591.291 2410.64,588.945 2420,597 C2442.87,616.6782 2459.3287,642.6595 2471.1467,670.6497 C2477.0557,684.6449 2481.8045,699.1422 2485.6144,713.6051 C2487.5193,720.8365 2489.1896,728.0593 2490.6527,735.2064 C2491.0185,736.9932 2491.3714,738.7752 2491.7117,740.5515 C2491.7968,740.9955 2491.8811,741.4392 2491.9647,741.8825 " fill="none" id="raspberrypi_downloaded_media&lt;-scraper_downloadedmedia" style="stroke: #A80036; stroke-width: 1.0; stroke-dasharray: 7.0,7.0;"/><polygon fill="#A80036" points="2079.28,525.042,2087.0395,531.1075,2084.1304,526.256,2088.9819,523.3469,2079.28,525.042" style="stroke: #A80036; stroke-width: 1.0;"/><!--MD5=[05309683eeaa6a278f576c2aa5b31d63]
reverse link raspberrypi_roms to roms_roms--><path d="M1476.09,529.005 C1454.66,550.371 1423.05,576.996 1389,589 C1364.32,597.701 466.511,579.563 447,597 C425.3125,616.3825 417.2218,680.639 414.5971,740.9013 C414.4331,744.6676 414.2904,748.4184 414.1671,752.1417 C414.1054,754.0033 414.0486,755.8581 413.9964,757.7044 " fill="none" id="raspberrypi_roms&lt;-roms_roms" style="stroke: #A80036; stroke-width: 1.0; stroke-dasharray: 7.0,7.0;"/><polygon fill="#A80036" points="1479.7,525.354,1470.5277,528.9415,1476.1845,528.9095,1476.2165,534.5662,1479.7,525.354" style="stroke: #A80036; stroke-width: 1.0;"/><!--MD5=[02765cfd6c77aa157077574d2f9c1abe]
link scrapervm_scrapershare to scraper_share--><path d="M618.877,529.219 C637.957,550.514 666.333,576.96 698,589 C751.229,609.237 1668.07,581.988 1723,597 C1834,627.3355 1945.9575,691.763 2031.04,749.3745 C2073.5813,778.1803 2109.4038,805.282 2135.0284,825.5663 C2147.8408,835.7084 2158.1037,844.1461 2165.3822,850.2403 C2166.292,851.0021 2167.1552,851.7272 2167.9709,852.4145 C2168.3788,852.7582 2168.7748,853.0924 2169.1588,853.4169 C2169.3508,853.5792 2169.5398,853.7391 2169.7258,853.8965 " fill="none" id="scrapervm_scrapershare-scraper_share" style="stroke: #A80036; stroke-width: 1.0;"/><polygon fill="#A80036" points="2169.7258,853.8965,2165.4408,845.0287,2165.9095,850.6661,2160.2721,851.1348,2169.7258,853.8965" style="stroke: #A80036; stroke-width: 1.0;"/><polygon fill="#A80036" points="615.424,525.307,618.3827,534.7009,618.7335,529.055,624.3794,529.4058,615.424,525.307" style="stroke: #A80036; stroke-width: 1.0;"/><!--MD5=[3f4054197f9442027adccfa4874549e8]
reverse link scrapervm_romsshare to roms_share--><path d="M367,530.377 C367,552.4427 367,583.8995 367,618.7319 C367,636.1482 367,654.4083 367,672.7604 C367,677.3485 367,681.9423 367,686.5301 C367,688.824 367,691.1163 367,693.4058 C367,694.5505 367,695.6945 367,696.8375 C367,697.409 367,697.9803 367,698.5514 " fill="none" id="scrapervm_romsshare&lt;-roms_share" style="stroke: #A80036; stroke-width: 1.0;"/><polygon fill="#A80036" points="367,525.284,363,534.284,367,530.284,371,534.284,367,525.284" style="stroke: #A80036; stroke-width: 1.0;"/><!--MD5=[811665b3911a26bd03a389343e500f5e]
link scrapervm_gamelists to scrapervm_scrapershare--><path d="M403.534,346.128 C419.912,354.122 438.072,362.682 455,370 C464.168,373.963 467.617,372.571 476,378 C514.665,403.04 550.82,442.495 572.668,468.799 " fill="none" id="scrapervm_gamelists-scrapervm_scrapershare" style="stroke: #A80036; stroke-width: 1.0;"/><!--MD5=[db8713b59af0e3554a40a18694589acc]
link scrapervm_downloaded_media to scrapervm_scrapershare--><path d="M594,346.268 C594,379.627 594,435.751 594,468.991 " fill="none" id="scrapervm_downloaded_media-scrapervm_scrapershare" style="stroke: #A80036; stroke-width: 1.0;"/><!--MD5=[d1b3a0753786c685fc70968d2fbf2aa0]
link scrapervm_roms to scrapervm_romsshare--><path d="M169.641,346.075 C213.495,379.389 287.511,435.616 331.363,468.928 " fill="none" id="scrapervm_roms-scrapervm_romsshare" style="stroke: #A80036; stroke-width: 1.0;"/><!--MD5=[fffea46bd96459031fbf7d2300d727ef]
link scrapervm_gamelists to scraper_gamelists--><path d="M399.341,348.582 C416.371,357.245 435.965,365.573 455,370 C477.443,375.219 2093.96,366.619 2114,378 C2212.82,434.132 2214.73,487.741 2246,597 C2253.9475,624.7633 2258.2256,654.8502 2260.1591,684.4357 C2261.1258,699.2285 2261.5063,713.8959 2261.4663,728.0848 C2261.4463,735.1793 2261.3211,742.1541 2261.1115,748.9652 C2261.0591,750.668 2261.0014,752.3605 2260.9388,754.0421 C2260.9074,754.8829 2260.8749,755.721 2260.8411,756.5563 C2260.8243,756.9739 2260.8071,757.3908 2260.7896,757.807 " fill="none" id="scrapervm_gamelists-scraper_gamelists" style="stroke: #A80036; stroke-width: 1.0; stroke-dasharray: 7.0,7.0;"/><polygon fill="#A80036" points="2260.7896,757.807,2265.1636,748.9827,2260.9993,752.8114,2257.1706,748.6472,2260.7896,757.807" style="stroke: #A80036; stroke-width: 1.0;"/><polygon fill="#A80036" points="394.608,346.133,400.7635,353.8213,399.0488,348.4306,404.4396,346.716,394.608,346.133" style="stroke: #A80036; stroke-width: 1.0;"/><!--MD5=[acf13e56fc30809b15f8dd6094f82a79]
link scrapervm_downloaded_media to scraper_downloadedmedia--><path d="M668.873,347.711 C695.908,356.698 726.93,365.45 756,370 C795.766,376.224 2167.93,362.323 2205,378 C2330.63,431.125 2350.43,479.675 2420,597 C2450.775,648.905 2470.635,713.6698 2482.87,766.0615 C2485.9288,779.1594 2488.5109,791.4841 2490.668,802.6411 C2490.9376,804.0357 2491.2006,805.4121 2491.457,806.7695 C2491.5852,807.4482 2491.7118,808.1221 2491.8368,808.7912 " fill="none" id="scrapervm_downloaded_media-scraper_downloadedmedia" style="stroke: #A80036; stroke-width: 1.0; stroke-dasharray: 7.0,7.0;"/><polygon fill="#A80036" points="2491.8368,808.7912,2494.1165,799.2098,2490.9188,803.8762,2486.2525,800.6786,2491.8368,808.7912" style="stroke: #A80036; stroke-width: 1.0;"/><polygon fill="#A80036" points="663.873,346.032,671.13,352.6905,668.6125,347.6247,673.6783,345.1072,663.873,346.032" style="stroke: #A80036; stroke-width: 1.0;"/><!--MD5=[e6221c4bc91681a7da7339175ff83c44]
reverse link scrapervm_roms to roms_roms--><path d="M138.246,351.475 C147.854,410.33 177.191,533.642 259,589 C273.007,598.478 399.267,584.82 411,597 C431.0345,617.7985 432.3165,682.077 428.4521,741.9965 C428.2106,745.7415 427.949,749.4694 427.6706,753.1686 C427.601,754.0935 427.5303,755.0165 427.4587,755.9375 C427.4228,756.398 427.3868,756.858 427.3505,757.3176 " fill="none" id="scrapervm_roms&lt;-roms_roms" style="stroke: #A80036; stroke-width: 1.0; stroke-dasharray: 7.0,7.0;"/><polygon fill="#A80036" points="137.429,346.326,134.8874,355.8413,138.2118,351.2643,142.7887,354.5888,137.429,346.326" style="stroke: #A80036; stroke-width: 1.0;"/><!--MD5=[1299f9eba391e1a77c779cdc6478078d]
@startuml
storage "roms-share" as roms_share {
    folder roms as roms_roms {
        folder "scummvm" as roms_scummvm {
            file "bass-cd-1.2.zip"
        }
    }
}

storage "scraper-share" as scraper_share {
    folder cache {
        card "images and metadata"
    }
    folder output {
        folder downloaded_media as scraper_downloadedmedia {
            folder "scummvm" as scraper_downloadedmedia_scummvm {
                folder screenshots {
                    file "bass-cd-1.2.png"
                }
            }
        }
        folder gamelists as scraper_gamelists {
            folder "scummvm" as scraper_gamelists_scummvm {
                file "gamelist.xml"
            }
        }
    }
}

node raspberry_pi {
    folder ".emulationstation" as raspberrypi_emulationstation {
        folder downloaded_media as raspberrypi_downloaded_media #BADA55
        folder gamelists as raspberrypi_gamelists #BADA55
    }
    folder RetroPie as raspberrpi_retropie {
        folder roms as raspberrypi_roms #BADA55
    }
    folder ".ssh" as raspberrypi_ssh {
        file "id_rsa.pub" as id_rsa
    }
    folder mount as raspberrypi_mount {
        folder "scraper-vm" as raspberrypi_scrapervm #BADA55
    }
}

node scraper_vm {
    folder ".skyscraper" as scrapervm_skyscraper {
        file "artwork.xml" as scrapervm_artwork #C0FFEE 
        file "config.ini" as scrapervm_config #C0FFEE
    }
    folder ".emulationstation" as scrapervm_emulationstation {
        folder downloaded_media as scrapervm_downloaded_media #BADA55
        folder gamelists as scrapervm_gamelists #BADA55
    }
    folder "RetroPie" as scrapervm_retropie {
        folder roms as scrapervm_roms #BADA55
    }
    folder ".ssh" {
        file authorized_keys
    }
    folder mount as scrapervm_mount {
        folder "scraper-share" as scrapervm_scrapershare #BADA55
        folder "roms-share" as scrapervm_romsshare #BADA55
    }
}

node dev_computer {
    folder ".skyscraper" as dev_skyscraper {
        file "artwork.xml" as dev_artwork
        file "config.ini" as dev_config
    }
}

dev_artwork - -> scrapervm_artwork 
dev_config - -> scrapervm_config

authorized_keys .. id_rsa
raspberrypi_scrapervm <- - scrapervm_mount
raspberrypi_gamelists - - raspberrypi_scrapervm
raspberrypi_downloaded_media - - raspberrypi_scrapervm
raspberrypi_roms - - raspberrypi_scrapervm
raspberrypi_gamelists <.. scraper_gamelists
raspberrypi_downloaded_media <.. scraper_downloadedmedia
raspberrypi_roms <.. roms_roms

scrapervm_scrapershare <- -> scraper_share
scrapervm_romsshare <- - roms_share
scrapervm_gamelists - - scrapervm_scrapershare
scrapervm_downloaded_media - - scrapervm_scrapershare
scrapervm_roms - - scrapervm_romsshare
scrapervm_gamelists <..> scraper_gamelists
scrapervm_downloaded_media <..> scraper_downloadedmedia
scrapervm_roms <.. roms_roms
@enduml

PlantUML version 1.2019.12(Sun Nov 03 10:24:54 UTC 2019)
(GPL source distribution)
Java Runtime: Java(TM) SE Runtime Environment
JVM: Java HotSpot(TM) 64-Bit Server VM
Java Version: 1.7.0_25-b15
Operating System: Linux
Default Encoding: UTF-8
Language: en
Country: US
--></g></svg>