<?xml version="1.0" encoding="UTF-8" standalone="no"?><svg xmlns="http://www.w3.org/2000/svg" xmlns:xlink="http://www.w3.org/1999/xlink" contentScriptType="application/ecmascript" contentStyleType="text/css" height="689px" preserveAspectRatio="none" style="width:2149px;height:689px;" version="1.1" viewBox="0 0 2149 689" width="2149px" zoomAndPan="magnify"><defs><filter height="300%" id="frucw59xykla3" width="300%" x="-1" y="-1"><feGaussianBlur result="blurOut" stdDeviation="2.0"/><feColorMatrix in="blurOut" result="blurOut2" type="matrix" values="0 0 0 0 0 0 0 0 0 0 0 0 0 0 0 0 0 0 .4 0"/><feOffset dx="4.0" dy="4.0" in="blurOut2" result="blurOut3"/><feBlend in="SourceGraphic" in2="blurOut3" mode="normal"/></filter></defs><g><!--MD5=[213ea740c569fadc3f4e150f5c2bff2e]
cluster scraper_share--><rect fill="#FFFFFF" filter="url(#frucw59xykla3)" height="403" rx="35" ry="35" style="stroke: #000000; stroke-width: 1.5;" width="1168" x="30" y="275"/><text fill="#000000" font-family="sans-serif" font-size="14" font-weight="bold" lengthAdjust="spacingAndGlyphs" textLength="89" x="569.5" y="294.9951">retro-cloud</text><!--MD5=[6e2bc53f2b489a463b0855903b315b97]
cluster cache--><polygon fill="#FFFFFF" filter="url(#frucw59xykla3)" points="964,478,1017,478,1024,500.2969,1166,500.2969,1166,551,964,551,964,478" style="stroke: #000000; stroke-width: 1.5;"/><line style="stroke: #000000; stroke-width: 1.5;" x1="964" x2="1024" y1="500.2969" y2="500.2969"/><text fill="#000000" font-family="sans-serif" font-size="14" font-weight="bold" lengthAdjust="spacingAndGlyphs" textLength="47" x="968" y="492.9951">cache</text><!--MD5=[d488920694292103d4ceb8c6110bf2d3]
cluster output--><polygon fill="#FFFFFF" filter="url(#frucw59xykla3)" points="340,326,398,326,405,348.2969,940,348.2969,940,646,340,646,340,326" style="stroke: #000000; stroke-width: 1.5;"/><line style="stroke: #000000; stroke-width: 1.5;" x1="340" x2="405" y1="348.2969" y2="348.2969"/><text fill="#000000" font-family="sans-serif" font-size="14" font-weight="bold" lengthAdjust="spacingAndGlyphs" textLength="52" x="344" y="340.9951">output</text><!--MD5=[697b3354a9f52e8346827e836942d9ac]
cluster scraper_downloadedmedia--><polygon fill="#FFFFFF" filter="url(#frucw59xykla3)" points="622,377,779,377,786,399.2969,908,399.2969,908,614,622,614,622,377" style="stroke: #000000; stroke-width: 1.5;"/><line style="stroke: #000000; stroke-width: 1.5;" x1="622" x2="786" y1="399.2969" y2="399.2969"/><text fill="#000000" font-family="sans-serif" font-size="14" font-weight="bold" lengthAdjust="spacingAndGlyphs" textLength="151" x="626" y="391.9951">downloaded_media</text><!--MD5=[a800d42652f2ea8a7a583938cb054bf1]
cluster scraper_downloadedmedia_scummvm--><polygon fill="#FFFFFF" filter="url(#frucw59xykla3)" points="662,428,747,428,754,450.2969,876,450.2969,876,582,662,582,662,428" style="stroke: #000000; stroke-width: 1.5;"/><line style="stroke: #000000; stroke-width: 1.5;" x1="662" x2="754" y1="450.2969" y2="450.2969"/><text fill="#000000" font-family="sans-serif" font-size="14" font-weight="bold" lengthAdjust="spacingAndGlyphs" textLength="79" x="666" y="442.9951">scummvm</text><!--MD5=[000223e6bce3c8893b15940fba3a1ae1]
cluster screenshots--><polygon fill="#FFFFFF" filter="url(#frucw59xykla3)" points="686,471,791,471,798,493.2969,852,493.2969,852,558,686,558,686,471" style="stroke: #000000; stroke-width: 1.5;"/><line style="stroke: #000000; stroke-width: 1.5;" x1="686" x2="798" y1="493.2969" y2="493.2969"/><text fill="#000000" font-family="sans-serif" font-size="14" font-weight="bold" lengthAdjust="spacingAndGlyphs" textLength="99" x="690" y="485.9951">screenshots</text><!--MD5=[564b22ef8b6d7af2d51b48a1455f591b]
cluster scraper_gamelists--><polygon fill="#FFFFFF" filter="url(#frucw59xykla3)" points="372,420,453,420,460,442.2969,582,442.2969,582,590,372,590,372,420" style="stroke: #000000; stroke-width: 1.5;"/><line style="stroke: #000000; stroke-width: 1.5;" x1="372" x2="460" y1="442.2969" y2="442.2969"/><text fill="#000000" font-family="sans-serif" font-size="14" font-weight="bold" lengthAdjust="spacingAndGlyphs" textLength="75" x="376" y="434.9951">gamelists</text><!--MD5=[8f3dba0732d967c0df79d309fe57a2c7]
cluster scraper_gamelists_scummvm--><polygon fill="#FFFFFF" filter="url(#frucw59xykla3)" points="412,471,497,471,504,493.2969,550,493.2969,550,558,412,558,412,471" style="stroke: #000000; stroke-width: 1.5;"/><line style="stroke: #000000; stroke-width: 1.5;" x1="412" x2="504" y1="493.2969" y2="493.2969"/><text fill="#000000" font-family="sans-serif" font-size="14" font-weight="bold" lengthAdjust="spacingAndGlyphs" textLength="79" x="416" y="485.9951">scummvm</text><!--MD5=[724368704ee42a399dfb2c968f2d9d7c]
cluster roms_roms--><polygon fill="#FFFFFF" filter="url(#frucw59xykla3)" points="78,420,124,420,131,442.2969,308,442.2969,308,590,78,590,78,420" style="stroke: #000000; stroke-width: 1.5;"/><line style="stroke: #000000; stroke-width: 1.5;" x1="78" x2="131" y1="442.2969" y2="442.2969"/><text fill="#000000" font-family="sans-serif" font-size="14" font-weight="bold" lengthAdjust="spacingAndGlyphs" textLength="40" x="82" y="434.9951">roms</text><!--MD5=[d4dcf26dd5110d415722840486c7680b]
cluster roms_scummvm--><polygon fill="#FFFFFF" filter="url(#frucw59xykla3)" points="118,471,203,471,210,493.2969,276,493.2969,276,558,118,558,118,471" style="stroke: #000000; stroke-width: 1.5;"/><line style="stroke: #000000; stroke-width: 1.5;" x1="118" x2="210" y1="493.2969" y2="493.2969"/><text fill="#000000" font-family="sans-serif" font-size="14" font-weight="bold" lengthAdjust="spacingAndGlyphs" textLength="79" x="122" y="485.9951">scummvm</text><!--MD5=[f92d360a1ab1165eb003422ff9636935]
cluster raspberry_pi--><polygon fill="#FFFFFF" filter="url(#frucw59xykla3)" points="1230,84,1240,74,2127,74,2127,582,2117,592,1230,592,1230,84" style="stroke: #000000; stroke-width: 1.5;"/><line style="stroke: #000000; stroke-width: 1.5;" x1="2117" x2="2126" y1="84" y2="75"/><line style="stroke: #000000; stroke-width: 1.5;" x1="1230" x2="2117" y1="84" y2="84"/><line style="stroke: #000000; stroke-width: 1.5;" x1="2117" x2="2117" y1="84" y2="592"/><text fill="#000000" font-family="sans-serif" font-size="14" font-weight="bold" lengthAdjust="spacingAndGlyphs" textLength="99" x="1625" y="99.9951">raspberry_pi</text><!--MD5=[7d0f2ea4e36aa958ee1e59388a96fb31]
cluster raspberrypi_emulationstation--><polygon fill="#FFFFFF" filter="url(#frucw59xykla3)" points="1608,122,1750,122,1757,144.2969,2103,144.2969,2103,229,1608,229,1608,122" style="stroke: #000000; stroke-width: 1.5;"/><line style="stroke: #000000; stroke-width: 1.5;" x1="1608" x2="1757" y1="144.2969" y2="144.2969"/><text fill="#000000" font-family="sans-serif" font-size="14" font-weight="bold" lengthAdjust="spacingAndGlyphs" textLength="136" x="1612" y="136.9951">.emulationstation</text><!--MD5=[0c85290c76c084d0f3edf007d1e1ebef]
cluster raspberrpi_retropie--><polygon fill="#FFFFFF" filter="url(#frucw59xykla3)" points="1402,122,1475,122,1482,144.2969,1584,144.2969,1584,229,1402,229,1402,122" style="stroke: #000000; stroke-width: 1.5;"/><line style="stroke: #000000; stroke-width: 1.5;" x1="1402" x2="1482" y1="144.2969" y2="144.2969"/><text fill="#000000" font-family="sans-serif" font-size="14" font-weight="bold" lengthAdjust="spacingAndGlyphs" textLength="67" x="1406" y="136.9951">RetroPie</text><!--MD5=[cceeca3b26ee61cb6bf7b2c85632c6d2]
cluster raspberrypi_ssh--><polygon fill="#FFFFFF" filter="url(#frucw59xykla3)" points="1254,132,1293,132,1300,154.2969,1378,154.2969,1378,219,1254,219,1254,132" style="stroke: #000000; stroke-width: 1.5;"/><line style="stroke: #000000; stroke-width: 1.5;" x1="1254" x2="1300" y1="154.2969" y2="154.2969"/><text fill="#000000" font-family="sans-serif" font-size="14" font-weight="bold" lengthAdjust="spacingAndGlyphs" textLength="33" x="1258" y="146.9951">.ssh</text><!--MD5=[b24681d8753d4854684825e02c0e23f7]
cluster raspberrypi_mount--><polygon fill="#FFFFFF" filter="url(#frucw59xykla3)" points="1465,461,1501,461,1508,483.2969,1741,483.2969,1741,568,1465,568,1465,461" style="stroke: #000000; stroke-width: 1.5;"/><line style="stroke: #000000; stroke-width: 1.5;" x1="1465" x2="1508" y1="483.2969" y2="483.2969"/><text fill="#000000" font-family="sans-serif" font-size="14" font-weight="bold" lengthAdjust="spacingAndGlyphs" textLength="30" x="1469" y="475.9951">mnt</text><!--MD5=[5a609c4c1f8c145238265b0a0da7c10c]
cluster scraper_vm--><polygon fill="#FFFFFF" filter="url(#frucw59xykla3)" points="556,94,566,84,1206,84,1206,233,1196,243,556,243,556,94" style="stroke: #000000; stroke-width: 1.5;"/><line style="stroke: #000000; stroke-width: 1.5;" x1="1196" x2="1205" y1="94" y2="85"/><line style="stroke: #000000; stroke-width: 1.5;" x1="556" x2="1196" y1="94" y2="94"/><line style="stroke: #000000; stroke-width: 1.5;" x1="1196" x2="1196" y1="94" y2="243"/><text fill="#000000" font-family="sans-serif" font-size="14" font-weight="bold" lengthAdjust="spacingAndGlyphs" textLength="91" x="831.5" y="109.9951">scraper_vm</text><!--MD5=[f6e243222f570263fbb26d0b3fbee5d8]
cluster scrapervm_skyscraper--><polygon fill="#FFFFFF" filter="url(#frucw59xykla3)" points="935,132,1034,132,1041,154.2969,1182,154.2969,1182,219,935,219,935,132" style="stroke: #000000; stroke-width: 1.5;"/><line style="stroke: #000000; stroke-width: 1.5;" x1="935" x2="1041" y1="154.2969" y2="154.2969"/><text fill="#000000" font-family="sans-serif" font-size="14" font-weight="bold" lengthAdjust="spacingAndGlyphs" textLength="93" x="939" y="146.9951">.skyscraper</text><!--MD5=[e19b3a96f885c5eface718264468e806]
cluster .ssh--><polygon fill="#FFFFFF" filter="url(#frucw59xykla3)" points="745,132,784,132,791,154.2969,911,154.2969,911,219,745,219,745,132" style="stroke: #000000; stroke-width: 1.5;"/><line style="stroke: #000000; stroke-width: 1.5;" x1="745" x2="791" y1="154.2969" y2="154.2969"/><text fill="#000000" font-family="sans-serif" font-size="14" font-weight="bold" lengthAdjust="spacingAndGlyphs" textLength="33" x="749" y="146.9951">.ssh</text><!--MD5=[7fb5956482de96721c36c95f00c32677]
entity images and metadata--><rect fill="#FEFECE" filter="url(#frucw59xykla3)" height="22.2969" style="stroke: #000000; stroke-width: 1.5;" width="169" x="980.5" y="513"/><text fill="#000000" font-family="sans-serif" font-size="14" lengthAdjust="spacingAndGlyphs" textLength="149" x="990.5" y="528.9951">images and metadata</text><!--MD5=[57feeaf0b3adcae0b118adc8d4c3a3ad]
entity bass-cd-1.2.png--><polygon fill="#FEFECE" filter="url(#frucw59xykla3)" points="702.5,506,702.5,542.2969,835.5,542.2969,835.5,516,825.5,506,702.5,506" style="stroke: #000000; stroke-width: 1.5;"/><path d="M825.5,506 L825.5,516 L835.5,516 " fill="#FEFECE" style="stroke: #000000; stroke-width: 1.5;"/><text fill="#000000" font-family="sans-serif" font-size="14" lengthAdjust="spacingAndGlyphs" textLength="113" x="712.5" y="528.9951">bass-cd-1.2.png</text><!--MD5=[20f115a46f3e3ec72203cc15f2657467]
entity gamelist.xml--><polygon fill="#FEFECE" filter="url(#frucw59xykla3)" points="428.5,506,428.5,542.2969,533.5,542.2969,533.5,516,523.5,506,428.5,506" style="stroke: #000000; stroke-width: 1.5;"/><path d="M523.5,506 L523.5,516 L533.5,516 " fill="#FEFECE" style="stroke: #000000; stroke-width: 1.5;"/><text fill="#000000" font-family="sans-serif" font-size="14" lengthAdjust="spacingAndGlyphs" textLength="85" x="438.5" y="528.9951">gamelist.xml</text><!--MD5=[3bf1a3617778081770d07e2718291b3e]
entity bass-cd-1.2.zip--><polygon fill="#FEFECE" filter="url(#frucw59xykla3)" points="134,506,134,542.2969,260,542.2969,260,516,250,506,134,506" style="stroke: #000000; stroke-width: 1.5;"/><path d="M250,506 L250,516 L260,516 " fill="#FEFECE" style="stroke: #000000; stroke-width: 1.5;"/><text fill="#000000" font-family="sans-serif" font-size="14" lengthAdjust="spacingAndGlyphs" textLength="106" x="144" y="528.9951">bass-cd-1.2.zip</text><!--MD5=[821da973449f357db0bedf6c9ef3a3f5]
entity raspberrypi_downloaded_media--><polygon fill="#BADA55" filter="url(#frucw59xykla3)" points="1839,157,1885,157,1892,178,2087,178,2087,212.5938,1839,212.5938,1839,157" style="stroke: #000000; stroke-width: 1.5;"/><line style="stroke: #000000; stroke-width: 1.5;" x1="1839" x2="1892" y1="178" y2="178"/><text fill="#000000" font-family="sans-serif" font-size="14" lengthAdjust="spacingAndGlyphs" textLength="134" x="1849" y="197.9951">downloaded_media</text><!--MD5=[cdc6febab90fadbe7e220ea766fe44a5]
entity raspberrypi_gamelists--><polygon fill="#BADA55" filter="url(#frucw59xykla3)" points="1624,157,1670,157,1677,178,1804,178,1804,212.5938,1624,212.5938,1624,157" style="stroke: #000000; stroke-width: 1.5;"/><line style="stroke: #000000; stroke-width: 1.5;" x1="1624" x2="1677" y1="178" y2="178"/><text fill="#000000" font-family="sans-serif" font-size="14" lengthAdjust="spacingAndGlyphs" textLength="66" x="1634" y="197.9951">gamelists</text><!--MD5=[3318fa35f41ae84afb7e51075789a7f6]
entity raspberrypi_roms--><polygon fill="#BADA55" filter="url(#frucw59xykla3)" points="1418.5,157,1464.5,157,1471.5,178,1567.5,178,1567.5,212.5938,1418.5,212.5938,1418.5,157" style="stroke: #000000; stroke-width: 1.5;"/><line style="stroke: #000000; stroke-width: 1.5;" x1="1418.5" x2="1471.5" y1="178" y2="178"/><text fill="#000000" font-family="sans-serif" font-size="14" lengthAdjust="spacingAndGlyphs" textLength="35" x="1428.5" y="197.9951">roms</text><!--MD5=[8c486c3ff19d49538faa25b942efeec7]
entity id_rsa--><polygon fill="#FEFECE" filter="url(#frucw59xykla3)" points="1270.5,167,1270.5,203.2969,1361.5,203.2969,1361.5,177,1351.5,167,1270.5,167" style="stroke: #000000; stroke-width: 1.5;"/><path d="M1351.5,167 L1351.5,177 L1361.5,177 " fill="#FEFECE" style="stroke: #000000; stroke-width: 1.5;"/><text fill="#000000" font-family="sans-serif" font-size="14" lengthAdjust="spacingAndGlyphs" textLength="71" x="1280.5" y="189.9951">id_rsa.pub</text><!--MD5=[a2c0bd3902e059afaae6a2702593dc5a]
entity raspberrypi_scrapervm--><polygon fill="#BADA55" filter="url(#frucw59xykla3)" points="1481.5,496,1527.5,496,1534.5,517,1724.5,517,1724.5,551.5938,1481.5,551.5938,1481.5,496" style="stroke: #000000; stroke-width: 1.5;"/><line style="stroke: #000000; stroke-width: 1.5;" x1="1481.5" x2="1534.5" y1="517" y2="517"/><text fill="#000000" font-family="sans-serif" font-size="14" lengthAdjust="spacingAndGlyphs" textLength="213" x="1491.5" y="536.9951">[date-time stamp]__retro-cloud</text><!--MD5=[dae4274460afd338a99d9aeaeb97b648]
entity scrapervm_mount--><polygon fill="#BADA55" filter="url(#frucw59xykla3)" points="572,157,618,157,625,178,726,178,726,212.5938,572,212.5938,572,157" style="stroke: #000000; stroke-width: 1.5;"/><line style="stroke: #000000; stroke-width: 1.5;" x1="572" x2="625" y1="178" y2="178"/><text fill="#000000" font-family="sans-serif" font-size="14" lengthAdjust="spacingAndGlyphs" textLength="120" x="582" y="197.9951">retro-cloud-share</text><!--MD5=[5e8ebbd88ec5cc908cef6aa507f0157a]
entity scrapervm_artwork--><polygon fill="#C0FFEE" filter="url(#frucw59xykla3)" points="1068,167,1068,203.2969,1166,203.2969,1166,177,1156,167,1068,167" style="stroke: #000000; stroke-width: 1.5;"/><path d="M1156,167 L1156,177 L1166,177 " fill="#C0FFEE" style="stroke: #000000; stroke-width: 1.5;"/><text fill="#000000" font-family="sans-serif" font-size="14" lengthAdjust="spacingAndGlyphs" textLength="78" x="1078" y="189.9951">artwork.xml</text><!--MD5=[b44c03154f6fbda6de28c6a8c34123f2]
entity scrapervm_config--><polygon fill="#C0FFEE" filter="url(#frucw59xykla3)" points="951.5,167,951.5,203.2969,1032.5,203.2969,1032.5,177,1022.5,167,951.5,167" style="stroke: #000000; stroke-width: 1.5;"/><path d="M1022.5,167 L1022.5,177 L1032.5,177 " fill="#C0FFEE" style="stroke: #000000; stroke-width: 1.5;"/><text fill="#000000" font-family="sans-serif" font-size="14" lengthAdjust="spacingAndGlyphs" textLength="61" x="961.5" y="189.9951">config.ini</text><!--MD5=[7413c226c16d0e7ef15783e51f320594]
entity authorized_keys--><polygon fill="#FEFECE" filter="url(#frucw59xykla3)" points="761.5,167,761.5,203.2969,894.5,203.2969,894.5,177,884.5,167,761.5,167" style="stroke: #000000; stroke-width: 1.5;"/><path d="M884.5,167 L884.5,177 L894.5,177 " fill="#FEFECE" style="stroke: #000000; stroke-width: 1.5;"/><text fill="#000000" font-family="sans-serif" font-size="14" lengthAdjust="spacingAndGlyphs" textLength="113" x="771.5" y="189.9951">authorized_keys</text><!--MD5=[762a30b10022e3a24fb180e432d841c0]
link authorized_keys to id_rsa--><path d="M836.46,166.859 C853.154,133.519 893.87,63.414 952.5,36 C1037.85,-3.909 1077.3,0.305 1164.5,36 C1230.05,62.833 1282.49,133.229 1304.62,166.75 " fill="none" id="authorized_keys-id_rsa" style="stroke: #A80036; stroke-width: 1.0; stroke-dasharray: 7.0,7.0;"/><!--MD5=[eefc4e7b468a6f9e7e10e18519fb852d]
reverse link raspberrypi_scrapervm to scrapervm_mount--><path d="M1567.73,492.564 C1497.21,433.9 1331.32,306.756 1166,259 C1121.05,246.015 789.597,265.143 745,251 C720.826,243.334 697.192,227.468 679.423,213.331 " fill="none" id="raspberrypi_scrapervm&lt;-scrapervm_mount" style="stroke: #A80036; stroke-width: 1.0;"/><polygon fill="#A80036" points="1571.83,495.987,1567.4977,487.1421,1567.9965,492.777,1562.3617,493.2757,1571.83,495.987" style="stroke: #A80036; stroke-width: 1.0;"/><!--MD5=[0afbebae511c8142ec245654a58a043f]
link raspberrypi_gamelists to raspberrypi_scrapervm--><path d="M1705.1,213.008 C1684.32,276.109 1632.76,432.636 1611.94,495.863 " fill="none" id="raspberrypi_gamelists-raspberrypi_scrapervm" style="stroke: #A80036; stroke-width: 1.0;"/><!--MD5=[af89d408f3225cfebc3842706b25841d]
link raspberrypi_downloaded_media to raspberrypi_scrapervm--><path d="M1934.15,213.008 C1866.74,276.109 1699.53,432.636 1631.99,495.863 " fill="none" id="raspberrypi_downloaded_media-raspberrypi_scrapervm" style="stroke: #A80036; stroke-width: 1.0;"/><!--MD5=[067f27ce3b31f212e8902299014e5ffd]
link raspberrypi_roms to raspberrypi_scrapervm--><path d="M1501.82,213.008 C1522.41,276.109 1573.5,432.636 1594.14,495.863 " fill="none" id="raspberrypi_roms-raspberrypi_scrapervm" style="stroke: #A80036; stroke-width: 1.0;"/><!--MD5=[33015a0d53b8c768598da2108afc9453]
reverse link raspberrypi_gamelists to scraper_gamelists--><path d="M1667.86,215.557 C1643.87,229.212 1613.45,243.941 1584,251 C1568.17,254.794 424.146,248.163 412,259 C368.593,297.7285 360.1627,362.2873 362.7944,417.8676 C363.4523,431.7627 364.8016,445.0967 366.4685,457.3256 C367.302,463.44 368.2149,469.2782 369.1605,474.7722 C369.6334,477.5192 370.1143,480.1801 370.5977,482.7464 C370.8393,484.0296 371.0816,485.2892 371.3237,486.524 C371.4448,487.1414 371.5658,487.7526 371.6867,488.3576 C371.7471,488.66 371.8075,488.9609 371.8679,489.2602 " fill="none" id="raspberrypi_gamelists&lt;-scraper_gamelists" style="stroke: #A80036; stroke-width: 1.0; stroke-dasharray: 7.0,7.0;"/><polygon fill="#A80036" points="1672.27,213.022,1662.4755,214.0552,1667.9392,215.5208,1666.4736,220.9845,1672.27,213.022" style="stroke: #A80036; stroke-width: 1.0;"/><!--MD5=[47b3b319789301ec25a57886a4fcb1dc]
reverse link raspberrypi_downloaded_media to scraper_downloadedmedia--><path d="M1912.97,215.4 C1886.81,229.105 1853.71,243.926 1822,251 C1806.6,254.436 698.225,249.025 686,259 C663.13,277.6613 648.1249,303.1261 638.4987,330.9156 C633.6856,344.8104 630.2172,359.2864 627.7829,373.7837 C627.6307,374.6898 627.4826,375.596 627.3385,376.5021 " fill="none" id="raspberrypi_downloaded_media&lt;-scraper_downloadedmedia" style="stroke: #A80036; stroke-width: 1.0; stroke-dasharray: 7.0,7.0;"/><polygon fill="#A80036" points="1917.44,213.034,1907.6148,213.7161,1913.0226,215.3763,1911.3624,220.784,1917.44,213.034" style="stroke: #A80036; stroke-width: 1.0;"/><!--MD5=[05309683eeaa6a278f576c2aa5b31d63]
reverse link raspberrypi_roms to roms_roms--><path d="M1451.87,216.033 C1430.88,229.54 1404.28,243.999 1378,251 C1361.09,255.506 131.061,247.352 118,259 C96.2919,278.359 88.2008,342.615 85.5811,402.8829 C85.4174,406.6496 85.275,410.4008 85.1521,414.1244 C85.0906,415.9863 85.034,417.8412 84.9819,419.6878 " fill="none" id="raspberrypi_roms&lt;-roms_roms" style="stroke: #A80036; stroke-width: 1.0; stroke-dasharray: 7.0,7.0;"/><polygon fill="#A80036" points="1456.27,213.168,1446.5456,214.7289,1452.0805,215.8972,1450.9123,221.4321,1456.27,213.168" style="stroke: #A80036; stroke-width: 1.0;"/><!--MD5=[ebd2fdf810213c92ed2208cd597b6d9e]
link scrapervm_mount to scraper_share--><path d="M566.656,190.835 C415.141,200.525 104.4332,224.401 70,259 C28.9644,300.233 20.5713,364.831 22.629,419.8054 C23.1434,433.549 24.311,446.6911 25.7851,458.7163 C26.5221,464.7289 27.3357,470.4622 28.1826,475.8519 C28.6061,478.5468 29.0378,481.1557 29.4725,483.6707 C29.5812,484.2994 29.69,484.9223 29.799,485.5392 C29.8534,485.8476 29.9079,486.1546 29.9624,486.46 " fill="none" id="scrapervm_mount-scraper_share" style="stroke: #A80036; stroke-width: 1.0;"/><polygon fill="#A80036" points="29.9624,486.46,32.3189,476.8972,29.084,481.5377,24.4434,478.3028,29.9624,486.46" style="stroke: #A80036; stroke-width: 1.0;"/><polygon fill="#A80036" points="571.978,190.496,562.7424,187.0749,566.9881,190.8131,563.2498,195.0588,571.978,190.496" style="stroke: #A80036; stroke-width: 1.0;"/><!--MD5=[7a32dd4234dc5984eceef8ac907d5501]
@startuml
storage "retro-cloud" as scraper_share {
    folder cache {
        card "images and metadata"
    }
    folder output {
        folder downloaded_media as scraper_downloadedmedia {
            folder "scummvm" as scraper_downloadedmedia_scummvm {
                folder screenshots {
                    file "bass-cd-1.2.png"
                }
            }
        }
        folder gamelists as scraper_gamelists {
            folder "scummvm" as scraper_gamelists_scummvm {
                file "gamelist.xml"
            }
        }
    }
    folder roms as roms_roms {
        folder "scummvm" as roms_scummvm {
            file "bass-cd-1.2.zip"
        }
    }
}

node raspberry_pi {
    folder ".emulationstation" as raspberrypi_emulationstation {
        folder downloaded_media as raspberrypi_downloaded_media #BADA55
        folder gamelists as raspberrypi_gamelists #BADA55
    }
    folder RetroPie as raspberrpi_retropie {
        folder roms as raspberrypi_roms #BADA55
    }
    folder ".ssh" as raspberrypi_ssh {
        file "id_rsa.pub" as id_rsa
    }
    folder mnt as raspberrypi_mount {
        folder "[date-time stamp]__retro-cloud" as raspberrypi_scrapervm #BADA55
    }
}

node scraper_vm {
    folder ".skyscraper" as scrapervm_skyscraper {
        file "artwork.xml" as scrapervm_artwork #C0FFEE
        file "config.ini" as scrapervm_config #C0FFEE
    }
    folder ".ssh" {
        file authorized_keys
    }
    folder "retro-cloud-share" as scrapervm_mount #BADA55
}

authorized_keys .. id_rsa
raspberrypi_scrapervm <- - scrapervm_mount
raspberrypi_gamelists - - raspberrypi_scrapervm
raspberrypi_downloaded_media - - raspberrypi_scrapervm
raspberrypi_roms - - raspberrypi_scrapervm
raspberrypi_gamelists <.. scraper_gamelists
raspberrypi_downloaded_media <.. scraper_downloadedmedia
raspberrypi_roms <.. roms_roms

scrapervm_mount <- -> scraper_share
@enduml

PlantUML version 1.2020.00(Sat Jan 11 12:30:53 UTC 2020)
(GPL source distribution)
Java Runtime: Java(TM) SE Runtime Environment
JVM: Java HotSpot(TM) 64-Bit Server VM
Java Version: 1.7.0_25-b15
Operating System: Linux
Default Encoding: UTF-8
Language: en
Country: US
--></g></svg>